G04 #@! TF.GenerationSoftware,KiCad,Pcbnew,7.0.10*
G04 #@! TF.CreationDate,2024-02-23T22:38:10+01:00*
G04 #@! TF.ProjectId,FluidNC,466c7569-644e-4432-9e6b-696361645f70,rev?*
G04 #@! TF.SameCoordinates,Original*
G04 #@! TF.FileFunction,Paste,Top*
G04 #@! TF.FilePolarity,Positive*
%FSLAX46Y46*%
G04 Gerber Fmt 4.6, Leading zero omitted, Abs format (unit mm)*
G04 Created by KiCad (PCBNEW 7.0.10) date 2024-02-23 22:38:10*
%MOMM*%
%LPD*%
G01*
G04 APERTURE LIST*
G04 Aperture macros list*
%AMRoundRect*
0 Rectangle with rounded corners*
0 $1 Rounding radius*
0 $2 $3 $4 $5 $6 $7 $8 $9 X,Y pos of 4 corners*
0 Add a 4 corners polygon primitive as box body*
4,1,4,$2,$3,$4,$5,$6,$7,$8,$9,$2,$3,0*
0 Add four circle primitives for the rounded corners*
1,1,$1+$1,$2,$3*
1,1,$1+$1,$4,$5*
1,1,$1+$1,$6,$7*
1,1,$1+$1,$8,$9*
0 Add four rect primitives between the rounded corners*
20,1,$1+$1,$2,$3,$4,$5,0*
20,1,$1+$1,$4,$5,$6,$7,0*
20,1,$1+$1,$6,$7,$8,$9,0*
20,1,$1+$1,$8,$9,$2,$3,0*%
G04 Aperture macros list end*
%ADD10RoundRect,0.237500X-0.287500X-0.237500X0.287500X-0.237500X0.287500X0.237500X-0.287500X0.237500X0*%
%ADD11RoundRect,0.237500X-0.250000X-0.237500X0.250000X-0.237500X0.250000X0.237500X-0.250000X0.237500X0*%
%ADD12RoundRect,0.237500X0.250000X0.237500X-0.250000X0.237500X-0.250000X-0.237500X0.250000X-0.237500X0*%
%ADD13RoundRect,0.237500X0.237500X-0.250000X0.237500X0.250000X-0.237500X0.250000X-0.237500X-0.250000X0*%
%ADD14RoundRect,0.150000X-0.725000X-0.150000X0.725000X-0.150000X0.725000X0.150000X-0.725000X0.150000X0*%
%ADD15RoundRect,0.237500X-0.300000X-0.237500X0.300000X-0.237500X0.300000X0.237500X-0.300000X0.237500X0*%
%ADD16R,1.240000X0.600000*%
%ADD17R,1.240000X0.300000*%
%ADD18RoundRect,0.150000X-0.825000X-0.150000X0.825000X-0.150000X0.825000X0.150000X-0.825000X0.150000X0*%
%ADD19RoundRect,0.237500X-0.237500X0.250000X-0.237500X-0.250000X0.237500X-0.250000X0.237500X0.250000X0*%
%ADD20RoundRect,0.150000X-0.150000X0.825000X-0.150000X-0.825000X0.150000X-0.825000X0.150000X0.825000X0*%
%ADD21RoundRect,0.150000X0.150000X-0.725000X0.150000X0.725000X-0.150000X0.725000X-0.150000X-0.725000X0*%
%ADD22RoundRect,0.112500X0.187500X0.112500X-0.187500X0.112500X-0.187500X-0.112500X0.187500X-0.112500X0*%
%ADD23RoundRect,0.150000X-0.587500X-0.150000X0.587500X-0.150000X0.587500X0.150000X-0.587500X0.150000X0*%
%ADD24RoundRect,0.237500X0.300000X0.237500X-0.300000X0.237500X-0.300000X-0.237500X0.300000X-0.237500X0*%
%ADD25R,1.500000X2.000000*%
%ADD26R,3.800000X2.000000*%
%ADD27RoundRect,0.250000X-0.537500X-0.425000X0.537500X-0.425000X0.537500X0.425000X-0.537500X0.425000X0*%
%ADD28RoundRect,0.237500X-0.237500X0.300000X-0.237500X-0.300000X0.237500X-0.300000X0.237500X0.300000X0*%
%ADD29RoundRect,0.178500X-8.821500X-2.796500X8.821500X-2.796500X8.821500X2.796500X-8.821500X2.796500X0*%
%ADD30RoundRect,0.112500X-0.112500X-0.987500X0.112500X-0.987500X0.112500X0.987500X-0.112500X0.987500X0*%
%ADD31RoundRect,0.237500X0.237500X-0.300000X0.237500X0.300000X-0.237500X0.300000X-0.237500X-0.300000X0*%
%ADD32RoundRect,0.250000X0.700000X-1.950000X0.700000X1.950000X-0.700000X1.950000X-0.700000X-1.950000X0*%
%ADD33R,1.600000X3.100000*%
%ADD34RoundRect,0.250000X0.537500X0.425000X-0.537500X0.425000X-0.537500X-0.425000X0.537500X-0.425000X0*%
%ADD35R,0.900000X1.700000*%
%ADD36RoundRect,0.150000X0.150000X-0.825000X0.150000X0.825000X-0.150000X0.825000X-0.150000X-0.825000X0*%
%ADD37RoundRect,0.150000X-0.150000X0.725000X-0.150000X-0.725000X0.150000X-0.725000X0.150000X0.725000X0*%
%ADD38R,4.200000X1.400000*%
%ADD39R,1.700000X0.900000*%
%ADD40R,3.100000X1.600000*%
%ADD41R,0.900000X1.500000*%
%ADD42R,1.500000X0.900000*%
%ADD43R,1.050000X1.050000*%
%ADD44RoundRect,0.150000X0.825000X0.150000X-0.825000X0.150000X-0.825000X-0.150000X0.825000X-0.150000X0*%
%ADD45RoundRect,0.250000X2.050000X0.300000X-2.050000X0.300000X-2.050000X-0.300000X2.050000X-0.300000X0*%
%ADD46RoundRect,0.250000X2.025000X2.375000X-2.025000X2.375000X-2.025000X-2.375000X2.025000X-2.375000X0*%
%ADD47RoundRect,0.250000X-1.400000X-1.000000X1.400000X-1.000000X1.400000X1.000000X-1.400000X1.000000X0*%
%ADD48RoundRect,0.237500X0.287500X0.237500X-0.287500X0.237500X-0.287500X-0.237500X0.287500X-0.237500X0*%
%ADD49RoundRect,0.250000X-0.425000X0.537500X-0.425000X-0.537500X0.425000X-0.537500X0.425000X0.537500X0*%
%ADD50RoundRect,0.250000X1.950000X0.700000X-1.950000X0.700000X-1.950000X-0.700000X1.950000X-0.700000X0*%
G04 APERTURE END LIST*
D10*
X12972500Y-29482500D03*
X14722500Y-29482500D03*
D11*
X3255000Y-80772000D03*
X5080000Y-80772000D03*
D12*
X233957500Y-65532000D03*
X232132500Y-65532000D03*
D13*
X43434000Y-29765000D03*
X43434000Y-27940000D03*
D14*
X127473000Y-71247000D03*
X127473000Y-72517000D03*
X127473000Y-73787000D03*
X127473000Y-75057000D03*
X127473000Y-76327000D03*
X127473000Y-77597000D03*
X127473000Y-78867000D03*
X127473000Y-80137000D03*
X132623000Y-80137000D03*
X132623000Y-78867000D03*
X132623000Y-77597000D03*
X132623000Y-76327000D03*
X132623000Y-75057000D03*
X132623000Y-73787000D03*
X132623000Y-72517000D03*
X132623000Y-71247000D03*
D11*
X151487500Y-46736000D03*
X153312500Y-46736000D03*
D15*
X161597000Y-56134000D03*
X163322000Y-56134000D03*
D13*
X22527500Y-37300500D03*
X22527500Y-35475500D03*
D16*
X6625500Y-34110000D03*
X6625500Y-34910000D03*
D17*
X6625500Y-36060000D03*
X6625500Y-37060000D03*
X6625500Y-37560000D03*
X6625500Y-38560000D03*
D16*
X6625500Y-39710000D03*
X6625500Y-40510000D03*
X6625500Y-40510000D03*
X6625500Y-39710000D03*
D17*
X6625500Y-39060000D03*
X6625500Y-38060000D03*
X6625500Y-36560000D03*
X6625500Y-35560000D03*
D16*
X6625500Y-34910000D03*
X6625500Y-34110000D03*
D11*
X200725000Y-49276000D03*
X202550000Y-49276000D03*
D18*
X89473000Y-66899000D03*
X89473000Y-68169000D03*
X89473000Y-69439000D03*
X89473000Y-70709000D03*
X94423000Y-70709000D03*
X94423000Y-69439000D03*
X94423000Y-68169000D03*
X94423000Y-66899000D03*
D19*
X217932000Y-66882000D03*
X217932000Y-68707000D03*
D11*
X42267500Y-24130000D03*
X44092500Y-24130000D03*
D13*
X85090000Y-103378000D03*
X85090000Y-101553000D03*
D20*
X51069000Y-64900000D03*
X49799000Y-64900000D03*
X48529000Y-64900000D03*
X47259000Y-64900000D03*
X47259000Y-69850000D03*
X48529000Y-69850000D03*
X49799000Y-69850000D03*
X51069000Y-69850000D03*
D13*
X182626000Y-103425000D03*
X182626000Y-101600000D03*
D11*
X151487500Y-49276000D03*
X153312500Y-49276000D03*
D21*
X37973000Y-56458000D03*
X39243000Y-56458000D03*
X40513000Y-56458000D03*
X41783000Y-56458000D03*
X43053000Y-56458000D03*
X44323000Y-56458000D03*
X45593000Y-56458000D03*
X46863000Y-56458000D03*
X46863000Y-51308000D03*
X45593000Y-51308000D03*
X44323000Y-51308000D03*
X43053000Y-51308000D03*
X41783000Y-51308000D03*
X40513000Y-51308000D03*
X39243000Y-51308000D03*
X37973000Y-51308000D03*
D15*
X127000000Y-35306000D03*
X128725000Y-35306000D03*
D12*
X283511000Y-59944000D03*
X281686000Y-59944000D03*
D22*
X11208500Y-34816500D03*
X9108500Y-34816500D03*
D23*
X26416000Y-33594000D03*
X26416000Y-35494000D03*
X28291000Y-34544000D03*
D12*
X173736000Y-50546000D03*
X171911000Y-50546000D03*
D19*
X168910000Y-67032500D03*
X168910000Y-68857500D03*
D24*
X130910500Y-81788000D03*
X129185500Y-81788000D03*
D11*
X32973000Y-30988000D03*
X34798000Y-30988000D03*
D25*
X7098000Y-17374000D03*
X9398000Y-17374000D03*
D26*
X9398000Y-11074000D03*
D25*
X11698000Y-17374000D03*
D27*
X1443000Y-85090000D03*
X4318000Y-85090000D03*
D28*
X225552000Y-66932000D03*
X225552000Y-68657000D03*
D29*
X169480000Y-26000000D03*
D30*
X163955000Y-32740000D03*
X164605000Y-32740000D03*
X165255000Y-32740000D03*
X165905000Y-32740000D03*
X166555000Y-32740000D03*
X167205000Y-32740000D03*
X167855000Y-32740000D03*
X168505000Y-32740000D03*
X169155000Y-32740000D03*
X169805000Y-32740000D03*
X170455000Y-32740000D03*
X171105000Y-32740000D03*
X171755000Y-32740000D03*
X172405000Y-32740000D03*
X173055000Y-32740000D03*
X173705000Y-32740000D03*
X174355000Y-32740000D03*
X175005000Y-32740000D03*
X175005000Y-19260000D03*
X174355000Y-19260000D03*
X173705000Y-19260000D03*
X173055000Y-19260000D03*
X172405000Y-19260000D03*
X171755000Y-19260000D03*
X171105000Y-19260000D03*
X170455000Y-19260000D03*
X169805000Y-19260000D03*
X169155000Y-19260000D03*
X168505000Y-19260000D03*
X167855000Y-19260000D03*
X167205000Y-19260000D03*
X166555000Y-19260000D03*
X165905000Y-19260000D03*
X165255000Y-19260000D03*
X164605000Y-19260000D03*
X163955000Y-19260000D03*
D31*
X87376000Y-73353000D03*
X87376000Y-71628000D03*
D15*
X31084000Y-71947000D03*
X32809000Y-71947000D03*
D10*
X13000500Y-27450500D03*
X14750500Y-27450500D03*
D28*
X207772000Y-63299000D03*
X207772000Y-65024000D03*
D19*
X163830000Y-67032500D03*
X163830000Y-68857500D03*
D15*
X33020000Y-29464000D03*
X34745000Y-29464000D03*
D24*
X33729000Y-34290000D03*
X32004000Y-34290000D03*
D28*
X35814000Y-52885000D03*
X35814000Y-54610000D03*
D12*
X169672000Y-50546000D03*
X167847000Y-50546000D03*
D24*
X86206500Y-24892000D03*
X84481500Y-24892000D03*
D11*
X235585000Y-68072000D03*
X237410000Y-68072000D03*
D28*
X217932000Y-63299000D03*
X217932000Y-65024000D03*
X210312000Y-66932000D03*
X210312000Y-68657000D03*
D12*
X215250000Y-50546000D03*
X213425000Y-50546000D03*
D28*
X166370000Y-67109000D03*
X166370000Y-68834000D03*
D32*
X76200000Y-12732000D03*
X76200000Y-4032000D03*
D12*
X174545000Y-35306000D03*
X172720000Y-35306000D03*
D11*
X235561500Y-62992000D03*
X237386500Y-62992000D03*
D33*
X153670000Y-80645000D03*
X156210000Y-80645000D03*
X158750000Y-80645000D03*
X161290000Y-80645000D03*
X163830000Y-80645000D03*
X166370000Y-80645000D03*
X168910000Y-80645000D03*
X171450000Y-80645000D03*
X171450000Y-71755000D03*
X168910000Y-71755000D03*
X166370000Y-71755000D03*
X163830000Y-71755000D03*
X161290000Y-71755000D03*
X158750000Y-71755000D03*
X156210000Y-71755000D03*
X153670000Y-71755000D03*
D12*
X219249000Y-48006000D03*
X217424000Y-48006000D03*
X136906000Y-35306000D03*
X135081000Y-35306000D03*
D14*
X34763000Y-23749000D03*
X34763000Y-25019000D03*
X34763000Y-26289000D03*
X34763000Y-27559000D03*
X39913000Y-27559000D03*
X39913000Y-26289000D03*
X39913000Y-25019000D03*
X39913000Y-23749000D03*
D21*
X80518000Y-56423000D03*
X81788000Y-56423000D03*
X83058000Y-56423000D03*
X84328000Y-56423000D03*
X85598000Y-56423000D03*
X86868000Y-56423000D03*
X88138000Y-56423000D03*
X89408000Y-56423000D03*
X89408000Y-51273000D03*
X88138000Y-51273000D03*
X86868000Y-51273000D03*
X85598000Y-51273000D03*
X84328000Y-51273000D03*
X83058000Y-51273000D03*
X81788000Y-51273000D03*
X80518000Y-51273000D03*
D34*
X10835500Y-22352000D03*
X7960500Y-22352000D03*
D18*
X15388500Y-33038500D03*
X15388500Y-34308500D03*
X15388500Y-35578500D03*
X15388500Y-36848500D03*
X15388500Y-38118500D03*
X15388500Y-39388500D03*
X15388500Y-40658500D03*
X15388500Y-41928500D03*
X20338500Y-41928500D03*
X20338500Y-40658500D03*
X20338500Y-39388500D03*
X20338500Y-38118500D03*
X20338500Y-36848500D03*
X20338500Y-35578500D03*
X20338500Y-34308500D03*
X20338500Y-33038500D03*
D31*
X96520000Y-66495000D03*
X96520000Y-64770000D03*
D19*
X153670000Y-67032500D03*
X153670000Y-68857500D03*
D35*
X268146000Y-50800000D03*
X264746000Y-50800000D03*
D11*
X155401000Y-46736000D03*
X157226000Y-46736000D03*
D35*
X1045000Y-55880000D03*
X4445000Y-55880000D03*
D12*
X233957500Y-55372000D03*
X232132500Y-55372000D03*
D31*
X22860000Y-61161000D03*
X22860000Y-59436000D03*
D15*
X235638000Y-65532000D03*
X237363000Y-65532000D03*
X31395500Y-62803000D03*
X33120500Y-62803000D03*
D11*
X92305500Y-27178000D03*
X94130500Y-27178000D03*
D24*
X33729000Y-43688000D03*
X32004000Y-43688000D03*
D13*
X139446000Y-103425000D03*
X139446000Y-101600000D03*
D28*
X215392000Y-66932000D03*
X215392000Y-68657000D03*
D19*
X223012000Y-66882000D03*
X223012000Y-68707000D03*
D12*
X169672000Y-48006000D03*
X167847000Y-48006000D03*
X215250000Y-48006000D03*
X213425000Y-48006000D03*
X32813000Y-24130000D03*
X30988000Y-24130000D03*
D15*
X232182500Y-57912000D03*
X233907500Y-57912000D03*
D33*
X207772000Y-80645000D03*
X210312000Y-80645000D03*
X212852000Y-80645000D03*
X215392000Y-80645000D03*
X217932000Y-80645000D03*
X220472000Y-80645000D03*
X223012000Y-80645000D03*
X225552000Y-80645000D03*
X225552000Y-71755000D03*
X223012000Y-71755000D03*
X220472000Y-71755000D03*
X217932000Y-71755000D03*
X215392000Y-71755000D03*
X212852000Y-71755000D03*
X210312000Y-71755000D03*
X207772000Y-71755000D03*
D15*
X84481500Y-32512000D03*
X86206500Y-32512000D03*
X235638000Y-60452000D03*
X237363000Y-60452000D03*
X50896000Y-71947000D03*
X52621000Y-71947000D03*
D19*
X6096000Y-55071000D03*
X6096000Y-56896000D03*
D13*
X279908000Y-103425000D03*
X279908000Y-101600000D03*
X225552000Y-65071000D03*
X225552000Y-63246000D03*
D12*
X283511000Y-86868000D03*
X281686000Y-86868000D03*
D28*
X161290000Y-67109000D03*
X161290000Y-68834000D03*
D35*
X268146000Y-60452000D03*
X264746000Y-60452000D03*
D27*
X1443000Y-82804000D03*
X4318000Y-82804000D03*
D28*
X163830000Y-63553000D03*
X163830000Y-65278000D03*
D32*
X137390000Y-98010000D03*
X137390000Y-89310000D03*
X82890000Y-98010000D03*
X82890000Y-89310000D03*
D11*
X2511500Y-31006500D03*
X4336500Y-31006500D03*
D13*
X210312000Y-65024000D03*
X210312000Y-63199000D03*
D21*
X65913000Y-56458000D03*
X67183000Y-56458000D03*
X68453000Y-56458000D03*
X69723000Y-56458000D03*
X70993000Y-56458000D03*
X72263000Y-56458000D03*
X73533000Y-56458000D03*
X74803000Y-56458000D03*
X74803000Y-51308000D03*
X73533000Y-51308000D03*
X72263000Y-51308000D03*
X70993000Y-51308000D03*
X69723000Y-51308000D03*
X68453000Y-51308000D03*
X67183000Y-51308000D03*
X65913000Y-51308000D03*
D24*
X38301000Y-22098000D03*
X36576000Y-22098000D03*
D15*
X4879000Y-79248000D03*
X6604000Y-79248000D03*
D11*
X8335000Y-8636000D03*
X10160000Y-8636000D03*
D15*
X235638000Y-55372000D03*
X237363000Y-55372000D03*
D12*
X173736000Y-53086000D03*
X171911000Y-53086000D03*
D15*
X37999500Y-62803000D03*
X39724500Y-62803000D03*
D12*
X215250000Y-53086000D03*
X213425000Y-53086000D03*
D13*
X161290000Y-65325000D03*
X161290000Y-63500000D03*
D28*
X158750000Y-63553000D03*
X158750000Y-65278000D03*
D19*
X41910000Y-25607000D03*
X41910000Y-27432000D03*
D11*
X9162500Y-29482500D03*
X10987500Y-29482500D03*
D36*
X34036000Y-41526000D03*
X35306000Y-41526000D03*
X36576000Y-41526000D03*
X37846000Y-41526000D03*
X37846000Y-36576000D03*
X36576000Y-36576000D03*
X35306000Y-36576000D03*
X34036000Y-36576000D03*
D21*
X51943000Y-56388000D03*
X53213000Y-56388000D03*
X54483000Y-56388000D03*
X55753000Y-56388000D03*
X57023000Y-56388000D03*
X58293000Y-56388000D03*
X59563000Y-56388000D03*
X60833000Y-56388000D03*
X60833000Y-51238000D03*
X59563000Y-51238000D03*
X58293000Y-51238000D03*
X57023000Y-51238000D03*
X55753000Y-51238000D03*
X54483000Y-51238000D03*
X53213000Y-51238000D03*
X51943000Y-51238000D03*
D35*
X268146000Y-69850000D03*
X264746000Y-69850000D03*
D12*
X41910000Y-30988000D03*
X40085000Y-30988000D03*
D37*
X36957000Y-74641000D03*
X35687000Y-74641000D03*
X34417000Y-74641000D03*
X33147000Y-74641000D03*
X31877000Y-74641000D03*
X30607000Y-74641000D03*
X29337000Y-74641000D03*
X28067000Y-74641000D03*
X28067000Y-79791000D03*
X29337000Y-79791000D03*
X30607000Y-79791000D03*
X31877000Y-79791000D03*
X33147000Y-79791000D03*
X34417000Y-79791000D03*
X35687000Y-79791000D03*
X36957000Y-79791000D03*
D11*
X155401000Y-51816000D03*
X157226000Y-51816000D03*
D28*
X153670000Y-63553000D03*
X153670000Y-65278000D03*
D12*
X169719000Y-53086000D03*
X167894000Y-53086000D03*
X283511000Y-100076000D03*
X281686000Y-100076000D03*
X219202000Y-53086000D03*
X217377000Y-53086000D03*
D13*
X21336000Y-61261000D03*
X21336000Y-59436000D03*
D12*
X283464000Y-69850000D03*
X281639000Y-69850000D03*
D24*
X41910000Y-29464000D03*
X40185000Y-29464000D03*
D13*
X156210000Y-65325000D03*
X156210000Y-63500000D03*
D11*
X196596000Y-49276000D03*
X198421000Y-49276000D03*
D35*
X268146000Y-65278000D03*
X264746000Y-65278000D03*
D32*
X277890000Y-98010000D03*
X277890000Y-89310000D03*
D38*
X87630000Y-30552000D03*
X87630000Y-26852000D03*
D39*
X7112000Y-85696000D03*
X7112000Y-82296000D03*
D10*
X94629000Y-31242000D03*
X96379000Y-31242000D03*
D29*
X131874000Y-25908000D03*
D30*
X126349000Y-32648000D03*
X126999000Y-32648000D03*
X127649000Y-32648000D03*
X128299000Y-32648000D03*
X128949000Y-32648000D03*
X129599000Y-32648000D03*
X130249000Y-32648000D03*
X130899000Y-32648000D03*
X131549000Y-32648000D03*
X132199000Y-32648000D03*
X132849000Y-32648000D03*
X133499000Y-32648000D03*
X134149000Y-32648000D03*
X134799000Y-32648000D03*
X135449000Y-32648000D03*
X136099000Y-32648000D03*
X136749000Y-32648000D03*
X137399000Y-32648000D03*
X137399000Y-19168000D03*
X136749000Y-19168000D03*
X136099000Y-19168000D03*
X135449000Y-19168000D03*
X134799000Y-19168000D03*
X134149000Y-19168000D03*
X133499000Y-19168000D03*
X132849000Y-19168000D03*
X132199000Y-19168000D03*
X131549000Y-19168000D03*
X130899000Y-19168000D03*
X130249000Y-19168000D03*
X129599000Y-19168000D03*
X128949000Y-19168000D03*
X128299000Y-19168000D03*
X127649000Y-19168000D03*
X126999000Y-19168000D03*
X126349000Y-19168000D03*
D20*
X31069000Y-64900000D03*
X29799000Y-64900000D03*
X28529000Y-64900000D03*
X27259000Y-64900000D03*
X27259000Y-69850000D03*
X28529000Y-69850000D03*
X29799000Y-69850000D03*
X31069000Y-69850000D03*
D28*
X223012000Y-63299000D03*
X223012000Y-65024000D03*
D11*
X200678000Y-46736000D03*
X202503000Y-46736000D03*
D31*
X87376000Y-80211000D03*
X87376000Y-78486000D03*
D13*
X236982000Y-103425000D03*
X236982000Y-101600000D03*
D12*
X233957500Y-60452000D03*
X232132500Y-60452000D03*
D19*
X158750000Y-67032500D03*
X158750000Y-68857500D03*
D13*
X41910000Y-103425000D03*
X41910000Y-101600000D03*
D18*
X89473000Y-73899000D03*
X89473000Y-75169000D03*
X89473000Y-76439000D03*
X89473000Y-77709000D03*
X94423000Y-77709000D03*
X94423000Y-76439000D03*
X94423000Y-75169000D03*
X94423000Y-73899000D03*
D28*
X212852000Y-63299000D03*
X212852000Y-65024000D03*
D12*
X283464000Y-80010000D03*
X281639000Y-80010000D03*
D40*
X249555000Y-68072000D03*
X249555000Y-65532000D03*
X249555000Y-62992000D03*
X249555000Y-60452000D03*
X249555000Y-57912000D03*
X249555000Y-55372000D03*
X249555000Y-52832000D03*
X249555000Y-50292000D03*
X240665000Y-50292000D03*
X240665000Y-52832000D03*
X240665000Y-55372000D03*
X240665000Y-57912000D03*
X240665000Y-60452000D03*
X240665000Y-62992000D03*
X240665000Y-65532000D03*
X240665000Y-68072000D03*
D41*
X1550000Y-77285000D03*
X2820000Y-77285000D03*
X4090000Y-77285000D03*
X5360000Y-77285000D03*
X6630000Y-77285000D03*
X7900000Y-77285000D03*
X9170000Y-77285000D03*
X10440000Y-77285000D03*
X11710000Y-77285000D03*
X12980000Y-77285000D03*
X14250000Y-77285000D03*
X15520000Y-77285000D03*
X16790000Y-77285000D03*
X18060000Y-77285000D03*
D42*
X19310000Y-74245000D03*
X19310000Y-72975000D03*
X19310000Y-71705000D03*
X19310000Y-70435000D03*
X19310000Y-69165000D03*
X19310000Y-67895000D03*
X19310000Y-66625000D03*
X19310000Y-65355000D03*
X19310000Y-64085000D03*
X19310000Y-62815000D03*
D41*
X18060000Y-59785000D03*
X16790000Y-59785000D03*
X15520000Y-59785000D03*
X14250000Y-59785000D03*
X12980000Y-59785000D03*
X11710000Y-59785000D03*
X10440000Y-59785000D03*
X9170000Y-59785000D03*
X7900000Y-59785000D03*
X6630000Y-59785000D03*
X5360000Y-59785000D03*
X4090000Y-59785000D03*
X2820000Y-59785000D03*
X1550000Y-59785000D03*
D43*
X7365000Y-70740000D03*
X8890000Y-70740000D03*
X10415000Y-70740000D03*
X7365000Y-69215000D03*
X8890000Y-69215000D03*
X10415000Y-69215000D03*
X7365000Y-67690000D03*
X8890000Y-67690000D03*
X10415000Y-67690000D03*
D28*
X171450000Y-67109000D03*
X171450000Y-68834000D03*
D15*
X44603500Y-62803000D03*
X46328500Y-62803000D03*
D28*
X156210000Y-67109000D03*
X156210000Y-68834000D03*
D44*
X165035000Y-54356000D03*
X165035000Y-53086000D03*
X165035000Y-51816000D03*
X165035000Y-50546000D03*
X165035000Y-49276000D03*
X165035000Y-48006000D03*
X165035000Y-46736000D03*
X160085000Y-46736000D03*
X160085000Y-48006000D03*
X160085000Y-49276000D03*
X160085000Y-50546000D03*
X160085000Y-51816000D03*
X160085000Y-53086000D03*
X160085000Y-54356000D03*
D18*
X89473000Y-80899000D03*
X89473000Y-82169000D03*
X89473000Y-83439000D03*
X89473000Y-84709000D03*
X94423000Y-84709000D03*
X94423000Y-83439000D03*
X94423000Y-82169000D03*
X94423000Y-80899000D03*
D19*
X32766000Y-25607000D03*
X32766000Y-27432000D03*
D11*
X196549000Y-46736000D03*
X198374000Y-46736000D03*
D32*
X180390000Y-98010000D03*
X180390000Y-89310000D03*
D11*
X235561500Y-57912000D03*
X237386500Y-57912000D03*
D19*
X212852000Y-66882000D03*
X212852000Y-68707000D03*
D31*
X96520000Y-80211000D03*
X96520000Y-78486000D03*
D44*
X210501000Y-54356000D03*
X210501000Y-53086000D03*
X210501000Y-51816000D03*
X210501000Y-50546000D03*
X210501000Y-49276000D03*
X210501000Y-48006000D03*
X210501000Y-46736000D03*
X205551000Y-46736000D03*
X205551000Y-48006000D03*
X205551000Y-49276000D03*
X205551000Y-50546000D03*
X205551000Y-51816000D03*
X205551000Y-53086000D03*
X205551000Y-54356000D03*
D15*
X232209000Y-62992000D03*
X233934000Y-62992000D03*
D45*
X81056000Y-32102000D03*
X81056000Y-30402000D03*
X81056000Y-28702000D03*
D46*
X74331000Y-31477000D03*
X74331000Y-25927000D03*
X69481000Y-31477000D03*
X69481000Y-25927000D03*
D45*
X81056000Y-27002000D03*
X81056000Y-25302000D03*
D15*
X164237500Y-35306000D03*
X165962500Y-35306000D03*
D28*
X4826000Y-12853500D03*
X4826000Y-14578500D03*
X50038000Y-52578000D03*
X50038000Y-54303000D03*
D35*
X268146000Y-55626000D03*
X264746000Y-55626000D03*
D15*
X232209000Y-68072000D03*
X233934000Y-68072000D03*
D28*
X64008000Y-52578000D03*
X64008000Y-54303000D03*
D13*
X31242000Y-29765000D03*
X31242000Y-27940000D03*
X215392000Y-65024000D03*
X215392000Y-63199000D03*
D15*
X37434000Y-71947000D03*
X39159000Y-71947000D03*
D47*
X79756000Y-36224000D03*
X79756000Y-43024000D03*
D13*
X220472000Y-65071000D03*
X220472000Y-63246000D03*
D19*
X24559500Y-35475500D03*
X24559500Y-37300500D03*
D20*
X44069000Y-64835000D03*
X42799000Y-64835000D03*
X41529000Y-64835000D03*
X40259000Y-64835000D03*
X40259000Y-69785000D03*
X41529000Y-69785000D03*
X42799000Y-69785000D03*
X44069000Y-69785000D03*
D13*
X166370000Y-65325000D03*
X166370000Y-63500000D03*
D28*
X78613000Y-52578000D03*
X78613000Y-54303000D03*
D15*
X51461500Y-62803000D03*
X53186500Y-62803000D03*
D12*
X173736000Y-48006000D03*
X171911000Y-48006000D03*
D15*
X207128000Y-56134000D03*
X208853000Y-56134000D03*
D32*
X234890000Y-98010000D03*
X234890000Y-89310000D03*
X39890000Y-98010000D03*
X39890000Y-89310000D03*
D11*
X9162500Y-27450500D03*
X10987500Y-27450500D03*
D48*
X178054000Y-35306000D03*
X176304000Y-35306000D03*
D19*
X207772000Y-66882000D03*
X207772000Y-68707000D03*
X7620000Y-55071000D03*
X7620000Y-56896000D03*
D12*
X219202000Y-50546000D03*
X217377000Y-50546000D03*
D11*
X2511500Y-43706500D03*
X4336500Y-43706500D03*
D31*
X96520000Y-73353000D03*
X96520000Y-71628000D03*
D48*
X13688000Y-8636000D03*
X11938000Y-8636000D03*
X140387000Y-35306000D03*
X138637000Y-35306000D03*
D49*
X2540000Y-12532500D03*
X2540000Y-15407500D03*
D24*
X10260500Y-20066000D03*
X8535500Y-20066000D03*
D15*
X44038000Y-71947000D03*
X45763000Y-71947000D03*
D50*
X95028000Y-38862000D03*
X86328000Y-38862000D03*
D31*
X87376000Y-66495000D03*
X87376000Y-64770000D03*
D24*
X3148500Y-79248000D03*
X1423500Y-79248000D03*
D31*
X26416000Y-77925000D03*
X26416000Y-76200000D03*
D28*
X220472000Y-66932000D03*
X220472000Y-68657000D03*
D23*
X26416000Y-37150000D03*
X26416000Y-39050000D03*
X28291000Y-38100000D03*
D24*
X18761500Y-31514500D03*
X17036500Y-31514500D03*
D28*
X168910000Y-63553000D03*
X168910000Y-65278000D03*
D24*
X8432500Y-80772000D03*
X6707500Y-80772000D03*
D11*
X151487500Y-51816000D03*
X153312500Y-51816000D03*
D20*
X37561000Y-64900000D03*
X36291000Y-64900000D03*
X35021000Y-64900000D03*
X33751000Y-64900000D03*
X33751000Y-69850000D03*
X35021000Y-69850000D03*
X36291000Y-69850000D03*
X37561000Y-69850000D03*
D11*
X155401000Y-49276000D03*
X157226000Y-49276000D03*
D13*
X171450000Y-65325000D03*
X171450000Y-63500000D03*
M02*
