G04 #@! TF.GenerationSoftware,KiCad,Pcbnew,8.0.2*
G04 #@! TF.CreationDate,2024-05-01T18:56:37+02:00*
G04 #@! TF.ProjectId,FluidNC,466c7569-644e-4432-9e6b-696361645f70,rev?*
G04 #@! TF.SameCoordinates,Original*
G04 #@! TF.FileFunction,Soldermask,Top*
G04 #@! TF.FilePolarity,Negative*
%FSLAX46Y46*%
G04 Gerber Fmt 4.6, Leading zero omitted, Abs format (unit mm)*
G04 Created by KiCad (PCBNEW 8.0.2) date 2024-05-01 18:56:37*
%MOMM*%
%LPD*%
G01*
G04 APERTURE LIST*
G04 Aperture macros list*
%AMRoundRect*
0 Rectangle with rounded corners*
0 $1 Rounding radius*
0 $2 $3 $4 $5 $6 $7 $8 $9 X,Y pos of 4 corners*
0 Add a 4 corners polygon primitive as box body*
4,1,4,$2,$3,$4,$5,$6,$7,$8,$9,$2,$3,0*
0 Add four circle primitives for the rounded corners*
1,1,$1+$1,$2,$3*
1,1,$1+$1,$4,$5*
1,1,$1+$1,$6,$7*
1,1,$1+$1,$8,$9*
0 Add four rect primitives between the rounded corners*
20,1,$1+$1,$2,$3,$4,$5,0*
20,1,$1+$1,$4,$5,$6,$7,0*
20,1,$1+$1,$6,$7,$8,$9,0*
20,1,$1+$1,$8,$9,$2,$3,0*%
G04 Aperture macros list end*
%ADD10RoundRect,0.237500X-0.287500X-0.237500X0.287500X-0.237500X0.287500X0.237500X-0.287500X0.237500X0*%
%ADD11RoundRect,0.237500X0.250000X0.237500X-0.250000X0.237500X-0.250000X-0.237500X0.250000X-0.237500X0*%
%ADD12RoundRect,0.237500X-0.250000X-0.237500X0.250000X-0.237500X0.250000X0.237500X-0.250000X0.237500X0*%
%ADD13RoundRect,0.237500X0.237500X-0.250000X0.237500X0.250000X-0.237500X0.250000X-0.237500X-0.250000X0*%
%ADD14RoundRect,0.237500X-0.300000X-0.237500X0.300000X-0.237500X0.300000X0.237500X-0.300000X0.237500X0*%
%ADD15C,2.000000*%
%ADD16C,0.650000*%
%ADD17R,1.240000X0.600000*%
%ADD18R,1.240000X0.300000*%
%ADD19O,2.100000X1.000000*%
%ADD20O,1.800000X1.000000*%
%ADD21RoundRect,0.150000X-0.150000X0.825000X-0.150000X-0.825000X0.150000X-0.825000X0.150000X0.825000X0*%
%ADD22RoundRect,0.237500X-0.237500X0.250000X-0.237500X-0.250000X0.237500X-0.250000X0.237500X0.250000X0*%
%ADD23RoundRect,0.237500X0.287500X0.237500X-0.287500X0.237500X-0.287500X-0.237500X0.287500X-0.237500X0*%
%ADD24RoundRect,0.150000X0.150000X-0.725000X0.150000X0.725000X-0.150000X0.725000X-0.150000X-0.725000X0*%
%ADD25C,1.620000*%
%ADD26RoundRect,0.112500X0.187500X0.112500X-0.187500X0.112500X-0.187500X-0.112500X0.187500X-0.112500X0*%
%ADD27RoundRect,0.150000X-0.587500X-0.150000X0.587500X-0.150000X0.587500X0.150000X-0.587500X0.150000X0*%
%ADD28RoundRect,0.375000X0.375000X-0.625000X0.375000X0.625000X-0.375000X0.625000X-0.375000X-0.625000X0*%
%ADD29RoundRect,0.500000X1.400000X-0.500000X1.400000X0.500000X-1.400000X0.500000X-1.400000X-0.500000X0*%
%ADD30RoundRect,0.250000X-0.537500X-0.425000X0.537500X-0.425000X0.537500X0.425000X-0.537500X0.425000X0*%
%ADD31RoundRect,0.237500X-0.237500X0.300000X-0.237500X-0.300000X0.237500X-0.300000X0.237500X0.300000X0*%
%ADD32C,1.200000*%
%ADD33RoundRect,0.178500X-8.821500X-2.796500X8.821500X-2.796500X8.821500X2.796500X-8.821500X2.796500X0*%
%ADD34RoundRect,0.112500X-0.112500X-0.987500X0.112500X-0.987500X0.112500X0.987500X-0.112500X0.987500X0*%
%ADD35RoundRect,0.237500X0.300000X0.237500X-0.300000X0.237500X-0.300000X-0.237500X0.300000X-0.237500X0*%
%ADD36R,2.400000X1.600000*%
%ADD37O,2.400000X1.600000*%
%ADD38RoundRect,0.250000X0.700000X-1.950000X0.700000X1.950000X-0.700000X1.950000X-0.700000X-1.950000X0*%
%ADD39R,1.600000X3.100000*%
%ADD40R,1.600000X1.600000*%
%ADD41O,1.600000X1.600000*%
%ADD42RoundRect,0.150000X-0.725000X-0.150000X0.725000X-0.150000X0.725000X0.150000X-0.725000X0.150000X0*%
%ADD43RoundRect,0.250000X0.537500X0.425000X-0.537500X0.425000X-0.537500X-0.425000X0.537500X-0.425000X0*%
%ADD44RoundRect,0.250000X0.600000X0.725000X-0.600000X0.725000X-0.600000X-0.725000X0.600000X-0.725000X0*%
%ADD45O,1.700000X1.950000*%
%ADD46RoundRect,0.150000X-0.825000X-0.150000X0.825000X-0.150000X0.825000X0.150000X-0.825000X0.150000X0*%
%ADD47R,1.925000X1.700000*%
%ADD48R,1.700000X1.925000*%
%ADD49RoundRect,0.237500X0.237500X-0.300000X0.237500X0.300000X-0.237500X0.300000X-0.237500X-0.300000X0*%
%ADD50C,3.000000*%
%ADD51R,1.700000X1.700000*%
%ADD52O,1.700000X1.700000*%
%ADD53RoundRect,0.150000X0.150000X-0.825000X0.150000X0.825000X-0.150000X0.825000X-0.150000X-0.825000X0*%
%ADD54RoundRect,0.112500X-0.112500X0.187500X-0.112500X-0.187500X0.112500X-0.187500X0.112500X0.187500X0*%
%ADD55R,2.200000X1.500000*%
%ADD56R,3.100000X1.600000*%
%ADD57R,0.900000X1.500000*%
%ADD58R,1.500000X0.900000*%
%ADD59C,0.600000*%
%ADD60R,4.200000X4.200000*%
%ADD61RoundRect,0.150000X0.825000X0.150000X-0.825000X0.150000X-0.825000X-0.150000X0.825000X-0.150000X0*%
%ADD62RoundRect,0.250000X2.050000X0.300000X-2.050000X0.300000X-2.050000X-0.300000X2.050000X-0.300000X0*%
%ADD63RoundRect,0.250002X4.449998X5.149998X-4.449998X5.149998X-4.449998X-5.149998X4.449998X-5.149998X0*%
%ADD64RoundRect,0.250000X-1.400000X-1.000000X1.400000X-1.000000X1.400000X1.000000X-1.400000X1.000000X0*%
%ADD65RoundRect,0.250000X-0.425000X0.537500X-0.425000X-0.537500X0.425000X-0.537500X0.425000X0.537500X0*%
%ADD66RoundRect,0.250000X1.950000X0.700000X-1.950000X0.700000X-1.950000X-0.700000X1.950000X-0.700000X0*%
G04 APERTURE END LIST*
D10*
X22125000Y-103600000D03*
X23875000Y-103600000D03*
X15597500Y-29464000D03*
X17347500Y-29464000D03*
D11*
X122425000Y-103600000D03*
X120600000Y-103600000D03*
D12*
X3255000Y-80772000D03*
X5080000Y-80772000D03*
D11*
X163171500Y-69088000D03*
X161346500Y-69088000D03*
D13*
X43145000Y-34210000D03*
X43145000Y-32385000D03*
D10*
X174925000Y-103200000D03*
X176675000Y-103200000D03*
D14*
X72737500Y-20400000D03*
X74462500Y-20400000D03*
D12*
X55187500Y-18800000D03*
X57012500Y-18800000D03*
D15*
X77104000Y-12620000D03*
X77104000Y-7620000D03*
X73604000Y-12620000D03*
X73604000Y-7620000D03*
X70104000Y-12620000D03*
X70104000Y-7620000D03*
X66604000Y-12620000D03*
X66604000Y-7620000D03*
X63104000Y-12620000D03*
X63104000Y-7620000D03*
X59604000Y-12620000D03*
X59604000Y-7620000D03*
X56104000Y-12620000D03*
X56104000Y-7620000D03*
X52604000Y-12620000D03*
X52604000Y-7620000D03*
X12416000Y-106760000D03*
X12416000Y-111760000D03*
X15916000Y-106760000D03*
X15916000Y-111760000D03*
X19416000Y-106760000D03*
X19416000Y-111760000D03*
X22916000Y-106760000D03*
X22916000Y-111760000D03*
X26416000Y-106760000D03*
X26416000Y-111760000D03*
D12*
X101130500Y-43942000D03*
X102955500Y-43942000D03*
D14*
X111240000Y-53340000D03*
X112965000Y-53340000D03*
D13*
X22527500Y-37300500D03*
X22527500Y-35475500D03*
D16*
X5505500Y-34420000D03*
X5505500Y-40200000D03*
D17*
X6625500Y-34110000D03*
X6625500Y-34910000D03*
D18*
X6625500Y-36060000D03*
X6625500Y-37060000D03*
X6625500Y-37560000D03*
X6625500Y-38560000D03*
D17*
X6625500Y-39710000D03*
X6625500Y-40510000D03*
X6625500Y-40510000D03*
X6625500Y-39710000D03*
D18*
X6625500Y-39060000D03*
X6625500Y-38060000D03*
X6625500Y-36560000D03*
X6625500Y-35560000D03*
D17*
X6625500Y-34910000D03*
X6625500Y-34110000D03*
D19*
X6025500Y-32990000D03*
D20*
X1825500Y-32990000D03*
D19*
X6025500Y-41630000D03*
D20*
X1825500Y-41630000D03*
D12*
X136209000Y-46609000D03*
X138034000Y-46609000D03*
D21*
X75514000Y-70931000D03*
X74244000Y-70931000D03*
X72974000Y-70931000D03*
X71704000Y-70931000D03*
X71704000Y-75881000D03*
X72974000Y-75881000D03*
X74244000Y-75881000D03*
X75514000Y-75881000D03*
D15*
X107412000Y-106760000D03*
X107412000Y-111760000D03*
X110912000Y-106760000D03*
X110912000Y-111760000D03*
X114412000Y-106760000D03*
X114412000Y-111760000D03*
X117912000Y-106760000D03*
X117912000Y-111760000D03*
X121412000Y-106760000D03*
X121412000Y-111760000D03*
D22*
X137160000Y-64977000D03*
X137160000Y-66802000D03*
D12*
X41978500Y-28575000D03*
X43803500Y-28575000D03*
D23*
X186975000Y-42600000D03*
X185225000Y-42600000D03*
D12*
X63857500Y-103124000D03*
X65682500Y-103124000D03*
D21*
X54229000Y-70742000D03*
X52959000Y-70742000D03*
X51689000Y-70742000D03*
X50419000Y-70742000D03*
X50419000Y-75692000D03*
X51689000Y-75692000D03*
X52959000Y-75692000D03*
X54229000Y-75692000D03*
D12*
X85887500Y-18700000D03*
X87712500Y-18700000D03*
X129643500Y-103124000D03*
X131468500Y-103124000D03*
X101130500Y-46482000D03*
X102955500Y-46482000D03*
D24*
X37973000Y-56458000D03*
X39243000Y-56458000D03*
X40513000Y-56458000D03*
X41783000Y-56458000D03*
X43053000Y-56458000D03*
X44323000Y-56458000D03*
X45593000Y-56458000D03*
X46863000Y-56458000D03*
X46863000Y-51308000D03*
X45593000Y-51308000D03*
X44323000Y-51308000D03*
X43053000Y-51308000D03*
X41783000Y-51308000D03*
X40513000Y-51308000D03*
X39243000Y-51308000D03*
X37973000Y-51308000D03*
D14*
X57049500Y-40112000D03*
X58774500Y-40112000D03*
D25*
X34624000Y-21804000D03*
X39624000Y-19304000D03*
X34624000Y-16804000D03*
D12*
X190095500Y-53467000D03*
X191920500Y-53467000D03*
D26*
X11208500Y-34816500D03*
X9108500Y-34816500D03*
D27*
X26416000Y-33594000D03*
X26416000Y-35494000D03*
X28291000Y-34544000D03*
D11*
X123379000Y-47752000D03*
X121554000Y-47752000D03*
D22*
X120650000Y-64823500D03*
X120650000Y-66648500D03*
D15*
X70104000Y-106760000D03*
X70104000Y-111760000D03*
X73604000Y-106760000D03*
X73604000Y-111760000D03*
X77104000Y-106760000D03*
X77104000Y-111760000D03*
X80604000Y-106760000D03*
X80604000Y-111760000D03*
X84104000Y-106760000D03*
X84104000Y-111760000D03*
X60960000Y-106760000D03*
X60960000Y-111760000D03*
X64460000Y-106760000D03*
X64460000Y-111760000D03*
D14*
X76237500Y-20400000D03*
X77962500Y-20400000D03*
D12*
X32684000Y-35433000D03*
X34509000Y-35433000D03*
D10*
X106925000Y-17100000D03*
X108675000Y-17100000D03*
D12*
X51687500Y-18800000D03*
X53512500Y-18800000D03*
D28*
X7098000Y-17374000D03*
X9398000Y-17374000D03*
D29*
X9398000Y-11074000D03*
D28*
X11698000Y-17374000D03*
D30*
X1443000Y-85090000D03*
X4318000Y-85090000D03*
D23*
X187000000Y-46000000D03*
X185250000Y-46000000D03*
D31*
X144780000Y-65027000D03*
X144780000Y-66752000D03*
D11*
X27412500Y-103600000D03*
X25587500Y-103600000D03*
D32*
X77264000Y-30000000D03*
X77264000Y-31500000D03*
X77264000Y-33000000D03*
X78764000Y-30000000D03*
X78764000Y-31500000D03*
X78764000Y-33000000D03*
X80264000Y-30000000D03*
X80264000Y-31500000D03*
X80264000Y-33000000D03*
X81764000Y-30000000D03*
X81764000Y-31500000D03*
D33*
X81764000Y-31500000D03*
D32*
X81764000Y-33000000D03*
X83264000Y-30000000D03*
X83264000Y-31500000D03*
X83264000Y-33000000D03*
X84764000Y-30000000D03*
X84764000Y-31500000D03*
X84764000Y-33000000D03*
X86264000Y-30000000D03*
X86264000Y-31500000D03*
X86264000Y-33000000D03*
D34*
X76239000Y-38240000D03*
X76889000Y-38240000D03*
X77539000Y-38240000D03*
X78189000Y-38240000D03*
X78839000Y-38240000D03*
X79489000Y-38240000D03*
X80139000Y-38240000D03*
X80789000Y-38240000D03*
X81439000Y-38240000D03*
X82089000Y-38240000D03*
X82739000Y-38240000D03*
X83389000Y-38240000D03*
X84039000Y-38240000D03*
X84689000Y-38240000D03*
X85339000Y-38240000D03*
X85989000Y-38240000D03*
X86639000Y-38240000D03*
X87289000Y-38240000D03*
X87289000Y-24760000D03*
X86639000Y-24760000D03*
X85989000Y-24760000D03*
X85339000Y-24760000D03*
X84689000Y-24760000D03*
X84039000Y-24760000D03*
X83389000Y-24760000D03*
X82739000Y-24760000D03*
X82089000Y-24760000D03*
X81439000Y-24760000D03*
X80789000Y-24760000D03*
X80139000Y-24760000D03*
X79489000Y-24760000D03*
X78839000Y-24760000D03*
X78189000Y-24760000D03*
X77539000Y-24760000D03*
X76889000Y-24760000D03*
X76239000Y-24760000D03*
D14*
X69060000Y-68834000D03*
X70785000Y-68834000D03*
D15*
X127056000Y-106760000D03*
X127056000Y-111760000D03*
X130556000Y-106760000D03*
X130556000Y-111760000D03*
D14*
X34305000Y-77789000D03*
X36030000Y-77789000D03*
D10*
X15625500Y-27432000D03*
X17375500Y-27432000D03*
D23*
X187000000Y-47700000D03*
X185250000Y-47700000D03*
D31*
X127000000Y-61394000D03*
X127000000Y-63119000D03*
D10*
X85925000Y-17100000D03*
X87675000Y-17100000D03*
D22*
X115570000Y-64823500D03*
X115570000Y-66648500D03*
D10*
X72725000Y-17200000D03*
X74475000Y-17200000D03*
D14*
X32731000Y-33909000D03*
X34456000Y-33909000D03*
D10*
X145825000Y-103600000D03*
X147575000Y-103600000D03*
D31*
X32004000Y-40793500D03*
X32004000Y-42518500D03*
X35814000Y-52885000D03*
X35814000Y-54610000D03*
D11*
X119315000Y-47752000D03*
X117490000Y-47752000D03*
D35*
X118900000Y-18200000D03*
X117175000Y-18200000D03*
D36*
X58156000Y-96210000D03*
D37*
X58156000Y-93670000D03*
X58156000Y-91130000D03*
X50536000Y-91130000D03*
X50536000Y-93670000D03*
X50536000Y-96210000D03*
D15*
X161884000Y-12620000D03*
X161884000Y-7620000D03*
X158384000Y-12620000D03*
X158384000Y-7620000D03*
X154884000Y-12620000D03*
X154884000Y-7620000D03*
X151384000Y-12620000D03*
X151384000Y-7620000D03*
X147884000Y-12620000D03*
X147884000Y-7620000D03*
X144384000Y-12620000D03*
X144384000Y-7620000D03*
X140884000Y-12620000D03*
X140884000Y-7620000D03*
X137384000Y-12620000D03*
X137384000Y-7620000D03*
D14*
X65737500Y-20400000D03*
X67462500Y-20400000D03*
D15*
X41260000Y-106760000D03*
X41260000Y-111760000D03*
X44760000Y-106760000D03*
X44760000Y-111760000D03*
X48260000Y-106760000D03*
X48260000Y-111760000D03*
X51760000Y-106760000D03*
X51760000Y-111760000D03*
X55260000Y-106760000D03*
X55260000Y-111760000D03*
D12*
X164799000Y-71628000D03*
X166624000Y-71628000D03*
D10*
X58725000Y-17200000D03*
X60475000Y-17200000D03*
D31*
X137160000Y-61394000D03*
X137160000Y-63119000D03*
X129540000Y-65027000D03*
X129540000Y-66752000D03*
D11*
X150734000Y-47879000D03*
X148909000Y-47879000D03*
D36*
X154432000Y-96520000D03*
D37*
X154432000Y-93980000D03*
X154432000Y-91440000D03*
X146812000Y-91440000D03*
X146812000Y-93980000D03*
X146812000Y-96520000D03*
D31*
X118110000Y-64900000D03*
X118110000Y-66625000D03*
D38*
X118364000Y-12732000D03*
X118364000Y-4032000D03*
D15*
X45552000Y-12620000D03*
X45552000Y-7620000D03*
X42052000Y-12620000D03*
X42052000Y-7620000D03*
X38552000Y-12620000D03*
X38552000Y-7620000D03*
X35052000Y-12620000D03*
X35052000Y-7620000D03*
D11*
X86764500Y-40112000D03*
X84939500Y-40112000D03*
D14*
X58737500Y-20400000D03*
X60462500Y-20400000D03*
D12*
X164775500Y-66548000D03*
X166600500Y-66548000D03*
D15*
X129992000Y-12620000D03*
X129992000Y-7620000D03*
X126492000Y-12620000D03*
X126492000Y-7620000D03*
D39*
X105410000Y-78740000D03*
X107950000Y-78740000D03*
X110490000Y-78740000D03*
X113030000Y-78740000D03*
X115570000Y-78740000D03*
X118110000Y-78740000D03*
X120650000Y-78740000D03*
X123190000Y-78740000D03*
X123190000Y-69850000D03*
X120650000Y-69850000D03*
X118110000Y-69850000D03*
X115570000Y-69850000D03*
X113030000Y-69850000D03*
X110490000Y-69850000D03*
X107950000Y-69850000D03*
X105410000Y-69850000D03*
D12*
X62187500Y-18800000D03*
X64012500Y-18800000D03*
D11*
X154733000Y-45339000D03*
X152908000Y-45339000D03*
D40*
X13000000Y-100000000D03*
D41*
X15540000Y-100000000D03*
X18080000Y-100000000D03*
X20620000Y-100000000D03*
X23160000Y-100000000D03*
X25700000Y-100000000D03*
X28240000Y-100000000D03*
X30780000Y-100000000D03*
X30780000Y-87300000D03*
X28240000Y-87300000D03*
X25700000Y-87300000D03*
X23160000Y-87300000D03*
X20620000Y-87300000D03*
X18080000Y-87300000D03*
X15540000Y-87300000D03*
X13000000Y-87300000D03*
D14*
X99937500Y-20300000D03*
X101662500Y-20300000D03*
D11*
X66952500Y-40112000D03*
X65127500Y-40112000D03*
D40*
X109812000Y-100508000D03*
D41*
X112352000Y-100508000D03*
X114892000Y-100508000D03*
X117432000Y-100508000D03*
X119972000Y-100508000D03*
X122512000Y-100508000D03*
X125052000Y-100508000D03*
X127592000Y-100508000D03*
X127592000Y-87808000D03*
X125052000Y-87808000D03*
X122512000Y-87808000D03*
X119972000Y-87808000D03*
X117432000Y-87808000D03*
X114892000Y-87808000D03*
X112352000Y-87808000D03*
X109812000Y-87808000D03*
D42*
X34474000Y-28194000D03*
X34474000Y-29464000D03*
X34474000Y-30734000D03*
X34474000Y-32004000D03*
X39624000Y-32004000D03*
X39624000Y-30734000D03*
X39624000Y-29464000D03*
X39624000Y-28194000D03*
D24*
X80518000Y-56423000D03*
X81788000Y-56423000D03*
X83058000Y-56423000D03*
X84328000Y-56423000D03*
X85598000Y-56423000D03*
X86868000Y-56423000D03*
X88138000Y-56423000D03*
X89408000Y-56423000D03*
X89408000Y-51273000D03*
X88138000Y-51273000D03*
X86868000Y-51273000D03*
X85598000Y-51273000D03*
X84328000Y-51273000D03*
X83058000Y-51273000D03*
X81788000Y-51273000D03*
X80518000Y-51273000D03*
D43*
X10835500Y-22352000D03*
X7960500Y-22352000D03*
D44*
X15668000Y-49784000D03*
D45*
X13168000Y-49784000D03*
X10668000Y-49784000D03*
X8168000Y-49784000D03*
X5668000Y-49784000D03*
X3168000Y-49784000D03*
D46*
X15388500Y-33038500D03*
X15388500Y-34308500D03*
X15388500Y-35578500D03*
X15388500Y-36848500D03*
X15388500Y-38118500D03*
X15388500Y-39388500D03*
X15388500Y-40658500D03*
X15388500Y-41928500D03*
X20338500Y-41928500D03*
X20338500Y-40658500D03*
X20338500Y-39388500D03*
X20338500Y-38118500D03*
X20338500Y-36848500D03*
X20338500Y-35578500D03*
X20338500Y-34308500D03*
X20338500Y-33038500D03*
D12*
X69187500Y-18800000D03*
X71012500Y-18800000D03*
D14*
X103437500Y-20300000D03*
X105162500Y-20300000D03*
X75918000Y-77978000D03*
X77643000Y-77978000D03*
D22*
X105410000Y-64823500D03*
X105410000Y-66648500D03*
D47*
X188062500Y-53467000D03*
X183637500Y-53467000D03*
D14*
X62237500Y-20400000D03*
X63962500Y-20400000D03*
D10*
X62225000Y-17200000D03*
X63975000Y-17200000D03*
D12*
X105044000Y-43942000D03*
X106869000Y-43942000D03*
D48*
X25400000Y-62664500D03*
X25400000Y-58239500D03*
D10*
X51725000Y-17200000D03*
X53475000Y-17200000D03*
D11*
X163171500Y-58928000D03*
X161346500Y-58928000D03*
D49*
X22860000Y-61161000D03*
X22860000Y-59436000D03*
D14*
X164852000Y-69088000D03*
X166577000Y-69088000D03*
D36*
X122672000Y-96530000D03*
D37*
X122672000Y-93990000D03*
X122672000Y-91450000D03*
X115052000Y-91450000D03*
X115052000Y-93990000D03*
X115052000Y-96530000D03*
D50*
X134100000Y-35600000D03*
X156700000Y-35600000D03*
D14*
X34616500Y-68645000D03*
X36341500Y-68645000D03*
D12*
X82387500Y-18700000D03*
X84212500Y-18700000D03*
X120778000Y-18200000D03*
X122603000Y-18200000D03*
D35*
X31850500Y-45720000D03*
X30125500Y-45720000D03*
D12*
X58687500Y-18800000D03*
X60512500Y-18800000D03*
X92559500Y-103124000D03*
X94384500Y-103124000D03*
D31*
X134620000Y-65027000D03*
X134620000Y-66752000D03*
D22*
X142240000Y-64977000D03*
X142240000Y-66802000D03*
D11*
X119315000Y-45212000D03*
X117490000Y-45212000D03*
D12*
X181687500Y-44300000D03*
X183512500Y-44300000D03*
D11*
X150734000Y-45339000D03*
X148909000Y-45339000D03*
X32524000Y-28575000D03*
X30699000Y-28575000D03*
D12*
X181687500Y-40900000D03*
X183512500Y-40900000D03*
D14*
X55237500Y-20400000D03*
X56962500Y-20400000D03*
D15*
X196044000Y-79102000D03*
X201044000Y-79102000D03*
X196044000Y-75602000D03*
X201044000Y-75602000D03*
X196044000Y-72102000D03*
X201044000Y-72102000D03*
X196044000Y-68602000D03*
X201044000Y-68602000D03*
X196044000Y-65102000D03*
X201044000Y-65102000D03*
X196044000Y-61602000D03*
X201044000Y-61602000D03*
X196044000Y-58102000D03*
X201044000Y-58102000D03*
X196044000Y-54602000D03*
X201044000Y-54602000D03*
X196044000Y-51102000D03*
X201044000Y-51102000D03*
X196044000Y-47602000D03*
X201044000Y-47602000D03*
X196044000Y-44102000D03*
X201044000Y-44102000D03*
X196044000Y-40602000D03*
X201044000Y-40602000D03*
D14*
X161396500Y-61468000D03*
X163121500Y-61468000D03*
D39*
X127000000Y-78740000D03*
X129540000Y-78740000D03*
X132080000Y-78740000D03*
X134620000Y-78740000D03*
X137160000Y-78740000D03*
X139700000Y-78740000D03*
X142240000Y-78740000D03*
X144780000Y-78740000D03*
X144780000Y-69850000D03*
X142240000Y-69850000D03*
X139700000Y-69850000D03*
X137160000Y-69850000D03*
X134620000Y-69850000D03*
X132080000Y-69850000D03*
X129540000Y-69850000D03*
X127000000Y-69850000D03*
D10*
X96425000Y-17100000D03*
X98175000Y-17100000D03*
D12*
X103387500Y-18700000D03*
X105212500Y-18700000D03*
D31*
X110100000Y-32937500D03*
X110100000Y-34662500D03*
D10*
X65725000Y-17200000D03*
X67475000Y-17200000D03*
D12*
X99887500Y-18700000D03*
X101712500Y-18700000D03*
D14*
X164852000Y-64008000D03*
X166577000Y-64008000D03*
X54117000Y-77789000D03*
X55842000Y-77789000D03*
D51*
X42672000Y-17526000D03*
D52*
X45212000Y-17526000D03*
X47752000Y-17526000D03*
D22*
X6096000Y-55071000D03*
X6096000Y-56896000D03*
D12*
X187555500Y-103124000D03*
X189380500Y-103124000D03*
D13*
X144780000Y-63166000D03*
X144780000Y-61341000D03*
D10*
X69225000Y-17200000D03*
X70975000Y-17200000D03*
D14*
X82437500Y-20300000D03*
X84162500Y-20300000D03*
D12*
X190095500Y-67945000D03*
X191920500Y-67945000D03*
X72687500Y-18800000D03*
X74512500Y-18800000D03*
X92887500Y-18700000D03*
X94712500Y-18700000D03*
D31*
X113030000Y-64900000D03*
X113030000Y-66625000D03*
D47*
X188062500Y-63119000D03*
X183637500Y-63119000D03*
D30*
X1443000Y-82804000D03*
X4318000Y-82804000D03*
D23*
X187000000Y-44300000D03*
X185250000Y-44300000D03*
D12*
X46087500Y-25100000D03*
X47912500Y-25100000D03*
D11*
X151112500Y-103600000D03*
X149287500Y-103600000D03*
D31*
X115570000Y-61344000D03*
X115570000Y-63069000D03*
D12*
X76187500Y-18800000D03*
X78012500Y-18800000D03*
D38*
X102616000Y-98320000D03*
X102616000Y-89620000D03*
X70612000Y-98010000D03*
X70612000Y-89310000D03*
D12*
X2511500Y-31006500D03*
X4336500Y-31006500D03*
D13*
X129540000Y-63119000D03*
X129540000Y-61294000D03*
D24*
X65913000Y-56458000D03*
X67183000Y-56458000D03*
X68453000Y-56458000D03*
X69723000Y-56458000D03*
X70993000Y-56458000D03*
X72263000Y-56458000D03*
X73533000Y-56458000D03*
X74803000Y-56458000D03*
X74803000Y-51308000D03*
X73533000Y-51308000D03*
X72263000Y-51308000D03*
X70993000Y-51308000D03*
X69723000Y-51308000D03*
X68453000Y-51308000D03*
X67183000Y-51308000D03*
X65913000Y-51308000D03*
D35*
X38012000Y-26543000D03*
X36287000Y-26543000D03*
D10*
X55225000Y-17200000D03*
X56975000Y-17200000D03*
D14*
X4879000Y-79248000D03*
X6604000Y-79248000D03*
D12*
X8335000Y-8636000D03*
X10160000Y-8636000D03*
D14*
X164852000Y-58928000D03*
X166577000Y-58928000D03*
D11*
X123379000Y-50292000D03*
X121554000Y-50292000D03*
D40*
X77734000Y-100310000D03*
D41*
X80274000Y-100310000D03*
X82814000Y-100310000D03*
X85354000Y-100310000D03*
X87894000Y-100310000D03*
X90434000Y-100310000D03*
X92974000Y-100310000D03*
X95514000Y-100310000D03*
X95514000Y-87610000D03*
X92974000Y-87610000D03*
X90434000Y-87610000D03*
X87894000Y-87610000D03*
X85354000Y-87610000D03*
X82814000Y-87610000D03*
X80274000Y-87610000D03*
X77734000Y-87610000D03*
D15*
X184778000Y-106760000D03*
X184778000Y-111760000D03*
X188278000Y-106760000D03*
X188278000Y-111760000D03*
D14*
X41220500Y-68645000D03*
X42945500Y-68645000D03*
D11*
X150734000Y-50419000D03*
X148909000Y-50419000D03*
D13*
X113030000Y-63116000D03*
X113030000Y-61291000D03*
D31*
X110490000Y-61344000D03*
X110490000Y-63069000D03*
D22*
X41621000Y-30052000D03*
X41621000Y-31877000D03*
D15*
X155956000Y-106760000D03*
X155956000Y-111760000D03*
X159456000Y-106760000D03*
X159456000Y-111760000D03*
D12*
X11787500Y-29464000D03*
X13612500Y-29464000D03*
D15*
X165100000Y-106760000D03*
X165100000Y-111760000D03*
X168600000Y-106760000D03*
X168600000Y-111760000D03*
X172100000Y-106760000D03*
X172100000Y-111760000D03*
X175600000Y-106760000D03*
X175600000Y-111760000D03*
X179100000Y-106760000D03*
X179100000Y-111760000D03*
D53*
X33747000Y-45971000D03*
X35017000Y-45971000D03*
X36287000Y-45971000D03*
X37557000Y-45971000D03*
X37557000Y-41021000D03*
X36287000Y-41021000D03*
X35017000Y-41021000D03*
X33747000Y-41021000D03*
D24*
X51943000Y-56388000D03*
X53213000Y-56388000D03*
X54483000Y-56388000D03*
X55753000Y-56388000D03*
X57023000Y-56388000D03*
X58293000Y-56388000D03*
X59563000Y-56388000D03*
X60833000Y-56388000D03*
X60833000Y-51238000D03*
X59563000Y-51238000D03*
X58293000Y-51238000D03*
X57023000Y-51238000D03*
X55753000Y-51238000D03*
X54483000Y-51238000D03*
X53213000Y-51238000D03*
X51943000Y-51238000D03*
D47*
X188062500Y-72517000D03*
X183637500Y-72517000D03*
D11*
X41621000Y-35433000D03*
X39796000Y-35433000D03*
D12*
X105044000Y-49022000D03*
X106869000Y-49022000D03*
D31*
X105410000Y-61344000D03*
X105410000Y-63069000D03*
D11*
X119362000Y-50292000D03*
X117537000Y-50292000D03*
D25*
X16804000Y-21804000D03*
X21804000Y-19304000D03*
X16804000Y-16804000D03*
D12*
X181687500Y-46000000D03*
X183512500Y-46000000D03*
X190095500Y-72517000D03*
X191920500Y-72517000D03*
D11*
X154686000Y-50419000D03*
X152861000Y-50419000D03*
D14*
X51737500Y-20400000D03*
X53462500Y-20400000D03*
D13*
X21336000Y-61261000D03*
X21336000Y-59436000D03*
D54*
X43688000Y-35624000D03*
X43688000Y-37724000D03*
D12*
X190095500Y-58293000D03*
X191920500Y-58293000D03*
D14*
X85937500Y-20300000D03*
X87662500Y-20300000D03*
D35*
X41621000Y-33909000D03*
X39896000Y-33909000D03*
D13*
X107950000Y-63116000D03*
X107950000Y-61291000D03*
D12*
X132080000Y-46609000D03*
X133905000Y-46609000D03*
D11*
X56212500Y-103600000D03*
X54387500Y-103600000D03*
D47*
X188062500Y-67945000D03*
X183637500Y-67945000D03*
D38*
X198628000Y-98010000D03*
X198628000Y-89310000D03*
D55*
X131200000Y-29500000D03*
X131200000Y-23100000D03*
D48*
X8128000Y-87556500D03*
X8128000Y-83131500D03*
D10*
X120815500Y-16676000D03*
X122565500Y-16676000D03*
D40*
X45466000Y-100000000D03*
D41*
X48006000Y-100000000D03*
X50546000Y-100000000D03*
X53086000Y-100000000D03*
X55626000Y-100000000D03*
X58166000Y-100000000D03*
X60706000Y-100000000D03*
X63246000Y-100000000D03*
X63246000Y-87300000D03*
X60706000Y-87300000D03*
X58166000Y-87300000D03*
X55626000Y-87300000D03*
X53086000Y-87300000D03*
X50546000Y-87300000D03*
X48006000Y-87300000D03*
X45466000Y-87300000D03*
D32*
X57572000Y-30000000D03*
X57572000Y-31500000D03*
X57572000Y-33000000D03*
X59072000Y-30000000D03*
X59072000Y-31500000D03*
X59072000Y-33000000D03*
X60572000Y-30000000D03*
X60572000Y-31500000D03*
X60572000Y-33000000D03*
X62072000Y-30000000D03*
X62072000Y-31500000D03*
D33*
X62072000Y-31500000D03*
D32*
X62072000Y-33000000D03*
X63572000Y-30000000D03*
X63572000Y-31500000D03*
X63572000Y-33000000D03*
X65072000Y-30000000D03*
X65072000Y-31500000D03*
X65072000Y-33000000D03*
X66572000Y-30000000D03*
X66572000Y-31500000D03*
X66572000Y-33000000D03*
D34*
X56547000Y-38240000D03*
X57197000Y-38240000D03*
X57847000Y-38240000D03*
X58497000Y-38240000D03*
X59147000Y-38240000D03*
X59797000Y-38240000D03*
X60447000Y-38240000D03*
X61097000Y-38240000D03*
X61747000Y-38240000D03*
X62397000Y-38240000D03*
X63047000Y-38240000D03*
X63697000Y-38240000D03*
X64347000Y-38240000D03*
X64997000Y-38240000D03*
X65647000Y-38240000D03*
X66297000Y-38240000D03*
X66947000Y-38240000D03*
X67597000Y-38240000D03*
X67597000Y-24760000D03*
X66947000Y-24760000D03*
X66297000Y-24760000D03*
X65647000Y-24760000D03*
X64997000Y-24760000D03*
X64347000Y-24760000D03*
X63697000Y-24760000D03*
X63047000Y-24760000D03*
X62397000Y-24760000D03*
X61747000Y-24760000D03*
X61097000Y-24760000D03*
X60447000Y-24760000D03*
X59797000Y-24760000D03*
X59147000Y-24760000D03*
X58497000Y-24760000D03*
X57847000Y-24760000D03*
X57197000Y-24760000D03*
X56547000Y-24760000D03*
D21*
X34290000Y-70742000D03*
X33020000Y-70742000D03*
X31750000Y-70742000D03*
X30480000Y-70742000D03*
X30480000Y-75692000D03*
X31750000Y-75692000D03*
X33020000Y-75692000D03*
X34290000Y-75692000D03*
D11*
X85112500Y-103600000D03*
X83287500Y-103600000D03*
D14*
X106937500Y-20300000D03*
X108662500Y-20300000D03*
D31*
X142240000Y-61394000D03*
X142240000Y-63119000D03*
D12*
X136162000Y-44069000D03*
X137987000Y-44069000D03*
D10*
X82425000Y-17100000D03*
X84175000Y-17100000D03*
D15*
X161828000Y-27352000D03*
X161828000Y-22352000D03*
X158328000Y-27352000D03*
X158328000Y-22352000D03*
X154828000Y-27352000D03*
X154828000Y-22352000D03*
X151328000Y-27352000D03*
X151328000Y-22352000D03*
X147828000Y-27352000D03*
X147828000Y-22352000D03*
X144328000Y-27352000D03*
X144328000Y-22352000D03*
X140828000Y-27352000D03*
X140828000Y-22352000D03*
X137328000Y-27352000D03*
X137328000Y-22352000D03*
D10*
X99925000Y-17100000D03*
X101675000Y-17100000D03*
D14*
X62202000Y-68834000D03*
X63927000Y-68834000D03*
D12*
X158853500Y-103124000D03*
X160678500Y-103124000D03*
D11*
X163171500Y-64008000D03*
X161346500Y-64008000D03*
D22*
X110490000Y-64823500D03*
X110490000Y-66648500D03*
D14*
X96437500Y-20300000D03*
X98162500Y-20300000D03*
D12*
X34647500Y-103378000D03*
X36472500Y-103378000D03*
D10*
X76225000Y-17200000D03*
X77975000Y-17200000D03*
D21*
X68514000Y-70931000D03*
X67244000Y-70931000D03*
X65974000Y-70931000D03*
X64704000Y-70931000D03*
X64704000Y-75881000D03*
X65974000Y-75881000D03*
X67244000Y-75881000D03*
X68514000Y-75881000D03*
D31*
X132080000Y-61394000D03*
X132080000Y-63119000D03*
D12*
X190095500Y-63119000D03*
X191920500Y-63119000D03*
D56*
X178689000Y-71628000D03*
X178689000Y-69088000D03*
X178689000Y-66548000D03*
X178689000Y-64008000D03*
X178689000Y-61468000D03*
X178689000Y-58928000D03*
X178689000Y-56388000D03*
X178689000Y-53848000D03*
X169799000Y-53848000D03*
X169799000Y-56388000D03*
X169799000Y-58928000D03*
X169799000Y-61468000D03*
X169799000Y-64008000D03*
X169799000Y-66548000D03*
X169799000Y-69088000D03*
X169799000Y-71628000D03*
D36*
X186436000Y-96210000D03*
D37*
X186436000Y-93670000D03*
X186436000Y-91130000D03*
X178816000Y-91130000D03*
X178816000Y-93670000D03*
X178816000Y-96210000D03*
D57*
X1550000Y-77285000D03*
X2820000Y-77285000D03*
X4090000Y-77285000D03*
X5360000Y-77285000D03*
X6630000Y-77285000D03*
X7900000Y-77285000D03*
X9170000Y-77285000D03*
X10440000Y-77285000D03*
X11710000Y-77285000D03*
X12980000Y-77285000D03*
X14250000Y-77285000D03*
X15520000Y-77285000D03*
X16790000Y-77285000D03*
X18060000Y-77285000D03*
D58*
X19310000Y-74245000D03*
X19310000Y-72975000D03*
X19310000Y-71705000D03*
X19310000Y-70435000D03*
X19310000Y-69165000D03*
X19310000Y-67895000D03*
X19310000Y-66625000D03*
X19310000Y-65355000D03*
X19310000Y-64085000D03*
X19310000Y-62815000D03*
D57*
X18060000Y-59785000D03*
X16790000Y-59785000D03*
X15520000Y-59785000D03*
X14250000Y-59785000D03*
X12980000Y-59785000D03*
X11710000Y-59785000D03*
X10440000Y-59785000D03*
X9170000Y-59785000D03*
X7900000Y-59785000D03*
X6630000Y-59785000D03*
X5360000Y-59785000D03*
X4090000Y-59785000D03*
X2820000Y-59785000D03*
X1550000Y-59785000D03*
D59*
X8127500Y-70740000D03*
X9652500Y-70740000D03*
X7365000Y-69977500D03*
X8890000Y-69977500D03*
X10415000Y-69977500D03*
X8127500Y-69215000D03*
D60*
X8890000Y-69215000D03*
D59*
X9652500Y-69215000D03*
X7365000Y-68452500D03*
X8890000Y-68452500D03*
X10415000Y-68452500D03*
X8127500Y-67690000D03*
X9652500Y-67690000D03*
D31*
X123190000Y-64900000D03*
X123190000Y-66625000D03*
D14*
X47824500Y-68645000D03*
X49549500Y-68645000D03*
D10*
X89425000Y-17100000D03*
X91175000Y-17100000D03*
D12*
X89387500Y-18700000D03*
X91212500Y-18700000D03*
D31*
X107950000Y-64900000D03*
X107950000Y-66625000D03*
D61*
X114678000Y-51562000D03*
X114678000Y-50292000D03*
X114678000Y-49022000D03*
X114678000Y-47752000D03*
X114678000Y-46482000D03*
X114678000Y-45212000D03*
X114678000Y-43942000D03*
X109728000Y-43942000D03*
X109728000Y-45212000D03*
X109728000Y-46482000D03*
X109728000Y-47752000D03*
X109728000Y-49022000D03*
X109728000Y-50292000D03*
X109728000Y-51562000D03*
D12*
X23787500Y-24500000D03*
X25612500Y-24500000D03*
D10*
X50925000Y-103600000D03*
X52675000Y-103600000D03*
D21*
X61514000Y-70931000D03*
X60244000Y-70931000D03*
X58974000Y-70931000D03*
X57704000Y-70931000D03*
X57704000Y-75881000D03*
X58974000Y-75881000D03*
X60244000Y-75881000D03*
X61514000Y-75881000D03*
D22*
X32477000Y-30052000D03*
X32477000Y-31877000D03*
D36*
X25690000Y-96210000D03*
D37*
X25690000Y-93670000D03*
X25690000Y-91130000D03*
X18070000Y-91130000D03*
X18070000Y-93670000D03*
X18070000Y-96210000D03*
D12*
X132033000Y-44069000D03*
X133858000Y-44069000D03*
D40*
X173746000Y-100000000D03*
D41*
X176286000Y-100000000D03*
X178826000Y-100000000D03*
X181366000Y-100000000D03*
X183906000Y-100000000D03*
X186446000Y-100000000D03*
X188986000Y-100000000D03*
X191526000Y-100000000D03*
X191526000Y-87300000D03*
X188986000Y-87300000D03*
X186446000Y-87300000D03*
X183906000Y-87300000D03*
X181366000Y-87300000D03*
X178826000Y-87300000D03*
X176286000Y-87300000D03*
X173746000Y-87300000D03*
D38*
X134620000Y-98330000D03*
X134620000Y-89630000D03*
D10*
X103425000Y-17100000D03*
X105175000Y-17100000D03*
D12*
X164775500Y-61468000D03*
X166600500Y-61468000D03*
D22*
X132080000Y-64977000D03*
X132080000Y-66802000D03*
D14*
X62202000Y-77978000D03*
X63927000Y-77978000D03*
D61*
X145985000Y-51689000D03*
X145985000Y-50419000D03*
X145985000Y-49149000D03*
X145985000Y-47879000D03*
X145985000Y-46609000D03*
X145985000Y-45339000D03*
X145985000Y-44069000D03*
X141035000Y-44069000D03*
X141035000Y-45339000D03*
X141035000Y-46609000D03*
X141035000Y-47879000D03*
X141035000Y-49149000D03*
X141035000Y-50419000D03*
X141035000Y-51689000D03*
D14*
X161423000Y-66548000D03*
X163148000Y-66548000D03*
D62*
X124050000Y-29000000D03*
X124050000Y-27300000D03*
X124050000Y-25600000D03*
D63*
X114900000Y-25600000D03*
D62*
X124050000Y-23900000D03*
X124050000Y-22200000D03*
D14*
X76861500Y-40112000D03*
X78586500Y-40112000D03*
D10*
X79825000Y-103600000D03*
X81575000Y-103600000D03*
D15*
X192928000Y-27352000D03*
X192928000Y-22352000D03*
X189428000Y-27352000D03*
X189428000Y-22352000D03*
X185928000Y-27352000D03*
X185928000Y-22352000D03*
X182428000Y-27352000D03*
X182428000Y-22352000D03*
X178928000Y-27352000D03*
X178928000Y-22352000D03*
X175428000Y-27352000D03*
X175428000Y-22352000D03*
X171928000Y-27352000D03*
X171928000Y-22352000D03*
X168428000Y-27352000D03*
X168428000Y-22352000D03*
D23*
X25500000Y-26100000D03*
X23750000Y-26100000D03*
D15*
X107812000Y-12620000D03*
X107812000Y-7620000D03*
X104312000Y-12620000D03*
X104312000Y-7620000D03*
X100812000Y-12620000D03*
X100812000Y-7620000D03*
X97312000Y-12620000D03*
X97312000Y-7620000D03*
X93812000Y-12620000D03*
X93812000Y-7620000D03*
X90312000Y-12620000D03*
X90312000Y-7620000D03*
X86812000Y-12620000D03*
X86812000Y-7620000D03*
X83312000Y-12620000D03*
X83312000Y-7620000D03*
D11*
X180212500Y-103200000D03*
X178387500Y-103200000D03*
D31*
X4826000Y-12853500D03*
X4826000Y-14578500D03*
X50038000Y-52578000D03*
X50038000Y-54303000D03*
D51*
X24907000Y-17526000D03*
D52*
X27447000Y-17526000D03*
X29987000Y-17526000D03*
D47*
X188062500Y-58293000D03*
X183637500Y-58293000D03*
D14*
X161423000Y-71628000D03*
X163148000Y-71628000D03*
D31*
X64008000Y-52578000D03*
X64008000Y-54303000D03*
D13*
X30953000Y-34210000D03*
X30953000Y-32385000D03*
D10*
X92925000Y-17100000D03*
X94675000Y-17100000D03*
D12*
X96387500Y-18700000D03*
X98212500Y-18700000D03*
X181687500Y-42600000D03*
X183512500Y-42600000D03*
D13*
X134620000Y-63119000D03*
X134620000Y-61294000D03*
D14*
X40655000Y-77789000D03*
X42380000Y-77789000D03*
D64*
X114200000Y-33600000D03*
X114200000Y-40400000D03*
D15*
X136144000Y-106760000D03*
X136144000Y-111760000D03*
X139644000Y-106760000D03*
X139644000Y-111760000D03*
X143144000Y-106760000D03*
X143144000Y-111760000D03*
X146644000Y-106760000D03*
X146644000Y-111760000D03*
X150144000Y-106760000D03*
X150144000Y-111760000D03*
D13*
X139700000Y-63166000D03*
X139700000Y-61341000D03*
D15*
X32004000Y-106760000D03*
X32004000Y-111760000D03*
X35504000Y-106760000D03*
X35504000Y-111760000D03*
D22*
X24559500Y-35475500D03*
X24559500Y-37300500D03*
D21*
X47290000Y-70677000D03*
X46020000Y-70677000D03*
X44750000Y-70677000D03*
X43480000Y-70677000D03*
X43480000Y-75627000D03*
X44750000Y-75627000D03*
X46020000Y-75627000D03*
X47290000Y-75627000D03*
D13*
X118110000Y-63116000D03*
X118110000Y-61291000D03*
D31*
X78613000Y-52578000D03*
X78613000Y-54303000D03*
D14*
X54682500Y-68645000D03*
X56407500Y-68645000D03*
D11*
X123379000Y-45212000D03*
X121554000Y-45212000D03*
D15*
X89916000Y-106760000D03*
X89916000Y-111760000D03*
X93416000Y-106760000D03*
X93416000Y-111760000D03*
D54*
X30480000Y-35624000D03*
X30480000Y-37724000D03*
D12*
X181687500Y-47700000D03*
X183512500Y-47700000D03*
D14*
X142612000Y-53467000D03*
X144337000Y-53467000D03*
D15*
X192816000Y-12620000D03*
X192816000Y-7620000D03*
X189316000Y-12620000D03*
X189316000Y-7620000D03*
X185816000Y-12620000D03*
X185816000Y-7620000D03*
X182316000Y-12620000D03*
X182316000Y-7620000D03*
X178816000Y-12620000D03*
X178816000Y-7620000D03*
X175316000Y-12620000D03*
X175316000Y-7620000D03*
X171816000Y-12620000D03*
X171816000Y-7620000D03*
X168316000Y-12620000D03*
X168316000Y-7620000D03*
D38*
X166624000Y-98330000D03*
X166624000Y-89630000D03*
X38100000Y-98108000D03*
X38100000Y-89408000D03*
D12*
X11787500Y-27432000D03*
X13612500Y-27432000D03*
D23*
X90283000Y-40112000D03*
X88533000Y-40112000D03*
D22*
X127000000Y-64977000D03*
X127000000Y-66802000D03*
X7620000Y-55071000D03*
X7620000Y-56896000D03*
D14*
X69275000Y-20400000D03*
X71000000Y-20400000D03*
D11*
X154686000Y-47879000D03*
X152861000Y-47879000D03*
D36*
X90424000Y-96520000D03*
D37*
X90424000Y-93980000D03*
X90424000Y-91440000D03*
X82804000Y-91440000D03*
X82804000Y-93980000D03*
X82804000Y-96520000D03*
D12*
X2511500Y-43706500D03*
X4336500Y-43706500D03*
D14*
X92937500Y-20300000D03*
X94662500Y-20300000D03*
X69060000Y-77978000D03*
X70785000Y-77978000D03*
D23*
X13688000Y-8636000D03*
X11938000Y-8636000D03*
X70471000Y-40112000D03*
X68721000Y-40112000D03*
D12*
X65687500Y-18800000D03*
X67512500Y-18800000D03*
D40*
X141742000Y-100310000D03*
D41*
X144282000Y-100310000D03*
X146822000Y-100310000D03*
X149362000Y-100310000D03*
X151902000Y-100310000D03*
X154442000Y-100310000D03*
X156982000Y-100310000D03*
X159522000Y-100310000D03*
X159522000Y-87610000D03*
X156982000Y-87610000D03*
X154442000Y-87610000D03*
X151902000Y-87610000D03*
X149362000Y-87610000D03*
X146822000Y-87610000D03*
X144282000Y-87610000D03*
X141742000Y-87610000D03*
D65*
X2540000Y-12532500D03*
X2540000Y-15407500D03*
D14*
X89437500Y-20300000D03*
X91162500Y-20300000D03*
D35*
X10260500Y-20066000D03*
X8535500Y-20066000D03*
D14*
X47259000Y-77789000D03*
X48984000Y-77789000D03*
D10*
X46150000Y-23500000D03*
X47900000Y-23500000D03*
D66*
X129550000Y-37500000D03*
X120850000Y-37500000D03*
D14*
X75918000Y-68834000D03*
X77643000Y-68834000D03*
D23*
X186975000Y-40900000D03*
X185225000Y-40900000D03*
D35*
X3148500Y-79248000D03*
X1423500Y-79248000D03*
D31*
X139700000Y-65027000D03*
X139700000Y-66752000D03*
D10*
X117025000Y-103600000D03*
X118775000Y-103600000D03*
D27*
X26416000Y-37150000D03*
X26416000Y-39050000D03*
X28291000Y-38100000D03*
D35*
X18761500Y-31514500D03*
X17036500Y-31514500D03*
D31*
X120650000Y-61344000D03*
X120650000Y-63069000D03*
D12*
X106887500Y-18700000D03*
X108712500Y-18700000D03*
D35*
X8432500Y-80772000D03*
X6707500Y-80772000D03*
D12*
X101130500Y-49022000D03*
X102955500Y-49022000D03*
D21*
X40782000Y-70742000D03*
X39512000Y-70742000D03*
X38242000Y-70742000D03*
X36972000Y-70742000D03*
X36972000Y-75692000D03*
X38242000Y-75692000D03*
X39512000Y-75692000D03*
X40782000Y-75692000D03*
D15*
X27884000Y-12620000D03*
X27884000Y-7620000D03*
X24384000Y-12620000D03*
X24384000Y-7620000D03*
X20884000Y-12620000D03*
X20884000Y-7620000D03*
X17384000Y-12620000D03*
X17384000Y-7620000D03*
D12*
X105044000Y-46482000D03*
X106869000Y-46482000D03*
D13*
X123190000Y-63116000D03*
X123190000Y-61291000D03*
M02*
