%TF.GenerationSoftware,KiCad,Pcbnew,8.0.2*%
%TF.CreationDate,2024-05-03T17:38:07+02:00*%
%TF.ProjectId,FluidNC,466c7569-644e-4432-9e6b-696361645f70,rev?*%
%TF.SameCoordinates,Original*%
%TF.FileFunction,Drillmap*%
%TF.FilePolarity,Positive*%
%FSLAX45Y45*%
G04 Gerber Fmt 4.5, Leading zero omitted, Abs format (unit mm)*
G04 Created by KiCad (PCBNEW 8.0.2) date 2024-05-03 17:38:07*
%MOMM*%
%LPD*%
G01*
G04 APERTURE LIST*
%ADD10C,0.200000*%
%ADD11C,0.050000*%
%ADD12C,0.100000*%
G04 APERTURE END LIST*
D10*
X0Y-300000D02*
X0Y-11700000D01*
D11*
X20660000Y-500000D02*
G75*
G02*
X20340000Y-500000I-160000J0D01*
G01*
X20340000Y-500000D02*
G75*
G02*
X20660000Y-500000I160000J0D01*
G01*
D10*
X300000Y-12000000D02*
X20700000Y-12000000D01*
X20700000Y0D02*
X300000Y0D01*
X20700000Y0D02*
G75*
G02*
X21000000Y-300000I0J-300000D01*
G01*
X21000000Y-11700000D02*
G75*
G02*
X20700000Y-12000000I-300000J0D01*
G01*
D11*
X20660000Y-11500000D02*
G75*
G02*
X20340000Y-11500000I-160000J0D01*
G01*
X20340000Y-11500000D02*
G75*
G02*
X20660000Y-11500000I160000J0D01*
G01*
D10*
X300000Y-12000000D02*
G75*
G02*
X0Y-11700000I0J300000D01*
G01*
D11*
X13210000Y-1870000D02*
G75*
G02*
X12890000Y-1870000I-160000J0D01*
G01*
X12890000Y-1870000D02*
G75*
G02*
X13210000Y-1870000I160000J0D01*
G01*
X660000Y-11500000D02*
G75*
G02*
X340000Y-11500000I-160000J0D01*
G01*
X340000Y-11500000D02*
G75*
G02*
X660000Y-11500000I160000J0D01*
G01*
D10*
X21000000Y-11700000D02*
X21000000Y-300000D01*
X0Y-300000D02*
G75*
G02*
X300000Y0I300000J0D01*
G01*
D11*
X660000Y-500000D02*
G75*
G02*
X340000Y-500000I-160000J0D01*
G01*
X340000Y-500000D02*
G75*
G02*
X660000Y-500000I160000J0D01*
G01*
X10160000Y-11500000D02*
G75*
G02*
X9840000Y-11500000I-160000J0D01*
G01*
X9840000Y-11500000D02*
G75*
G02*
X10160000Y-11500000I160000J0D01*
G01*
D10*
D12*
X518050Y-3409500D02*
X583050Y-3474500D01*
X583050Y-3409500D02*
X518050Y-3474500D01*
X518050Y-3987500D02*
X583050Y-4052500D01*
X583050Y-3987500D02*
X518050Y-4052500D01*
D10*
X250777Y-12321484D02*
X250777Y-12121484D01*
X250777Y-12121484D02*
X298396Y-12121484D01*
X298396Y-12121484D02*
X326967Y-12131008D01*
X326967Y-12131008D02*
X346015Y-12150055D01*
X346015Y-12150055D02*
X355539Y-12169103D01*
X355539Y-12169103D02*
X365062Y-12207198D01*
X365062Y-12207198D02*
X365062Y-12235770D01*
X365062Y-12235770D02*
X355539Y-12273865D01*
X355539Y-12273865D02*
X346015Y-12292912D01*
X346015Y-12292912D02*
X326967Y-12311960D01*
X326967Y-12311960D02*
X298396Y-12321484D01*
X298396Y-12321484D02*
X250777Y-12321484D01*
X450777Y-12321484D02*
X450777Y-12188150D01*
X450777Y-12226246D02*
X460300Y-12207198D01*
X460300Y-12207198D02*
X469824Y-12197674D01*
X469824Y-12197674D02*
X488872Y-12188150D01*
X488872Y-12188150D02*
X507920Y-12188150D01*
X574586Y-12321484D02*
X574586Y-12188150D01*
X574586Y-12121484D02*
X565062Y-12131008D01*
X565062Y-12131008D02*
X574586Y-12140531D01*
X574586Y-12140531D02*
X584110Y-12131008D01*
X584110Y-12131008D02*
X574586Y-12121484D01*
X574586Y-12121484D02*
X574586Y-12140531D01*
X698396Y-12321484D02*
X679348Y-12311960D01*
X679348Y-12311960D02*
X669824Y-12292912D01*
X669824Y-12292912D02*
X669824Y-12121484D01*
X803158Y-12321484D02*
X784110Y-12311960D01*
X784110Y-12311960D02*
X774586Y-12292912D01*
X774586Y-12292912D02*
X774586Y-12121484D01*
X1031729Y-12321484D02*
X1031729Y-12121484D01*
X1031729Y-12121484D02*
X1098396Y-12264341D01*
X1098396Y-12264341D02*
X1165062Y-12121484D01*
X1165062Y-12121484D02*
X1165062Y-12321484D01*
X1346015Y-12321484D02*
X1346015Y-12216722D01*
X1346015Y-12216722D02*
X1336491Y-12197674D01*
X1336491Y-12197674D02*
X1317443Y-12188150D01*
X1317443Y-12188150D02*
X1279348Y-12188150D01*
X1279348Y-12188150D02*
X1260301Y-12197674D01*
X1346015Y-12311960D02*
X1326967Y-12321484D01*
X1326967Y-12321484D02*
X1279348Y-12321484D01*
X1279348Y-12321484D02*
X1260301Y-12311960D01*
X1260301Y-12311960D02*
X1250777Y-12292912D01*
X1250777Y-12292912D02*
X1250777Y-12273865D01*
X1250777Y-12273865D02*
X1260301Y-12254817D01*
X1260301Y-12254817D02*
X1279348Y-12245293D01*
X1279348Y-12245293D02*
X1326967Y-12245293D01*
X1326967Y-12245293D02*
X1346015Y-12235770D01*
X1441253Y-12188150D02*
X1441253Y-12388150D01*
X1441253Y-12197674D02*
X1460300Y-12188150D01*
X1460300Y-12188150D02*
X1498396Y-12188150D01*
X1498396Y-12188150D02*
X1517443Y-12197674D01*
X1517443Y-12197674D02*
X1526967Y-12207198D01*
X1526967Y-12207198D02*
X1536491Y-12226246D01*
X1536491Y-12226246D02*
X1536491Y-12283389D01*
X1536491Y-12283389D02*
X1526967Y-12302436D01*
X1526967Y-12302436D02*
X1517443Y-12311960D01*
X1517443Y-12311960D02*
X1498396Y-12321484D01*
X1498396Y-12321484D02*
X1460300Y-12321484D01*
X1460300Y-12321484D02*
X1441253Y-12311960D01*
X1622205Y-12302436D02*
X1631729Y-12311960D01*
X1631729Y-12311960D02*
X1622205Y-12321484D01*
X1622205Y-12321484D02*
X1612681Y-12311960D01*
X1612681Y-12311960D02*
X1622205Y-12302436D01*
X1622205Y-12302436D02*
X1622205Y-12321484D01*
X1622205Y-12197674D02*
X1631729Y-12207198D01*
X1631729Y-12207198D02*
X1622205Y-12216722D01*
X1622205Y-12216722D02*
X1612681Y-12207198D01*
X1612681Y-12207198D02*
X1622205Y-12197674D01*
X1622205Y-12197674D02*
X1622205Y-12216722D01*
D12*
X-75000Y-12617500D02*
X-10000Y-12682500D01*
X-10000Y-12617500D02*
X-75000Y-12682500D01*
D10*
X288872Y-12541484D02*
X307920Y-12541484D01*
X307920Y-12541484D02*
X326967Y-12551008D01*
X326967Y-12551008D02*
X336491Y-12560531D01*
X336491Y-12560531D02*
X346015Y-12579579D01*
X346015Y-12579579D02*
X355539Y-12617674D01*
X355539Y-12617674D02*
X355539Y-12665293D01*
X355539Y-12665293D02*
X346015Y-12703389D01*
X346015Y-12703389D02*
X336491Y-12722436D01*
X336491Y-12722436D02*
X326967Y-12731960D01*
X326967Y-12731960D02*
X307920Y-12741484D01*
X307920Y-12741484D02*
X288872Y-12741484D01*
X288872Y-12741484D02*
X269824Y-12731960D01*
X269824Y-12731960D02*
X260300Y-12722436D01*
X260300Y-12722436D02*
X250777Y-12703389D01*
X250777Y-12703389D02*
X241253Y-12665293D01*
X241253Y-12665293D02*
X241253Y-12617674D01*
X241253Y-12617674D02*
X250777Y-12579579D01*
X250777Y-12579579D02*
X260300Y-12560531D01*
X260300Y-12560531D02*
X269824Y-12551008D01*
X269824Y-12551008D02*
X288872Y-12541484D01*
X441253Y-12722436D02*
X450777Y-12731960D01*
X450777Y-12731960D02*
X441253Y-12741484D01*
X441253Y-12741484D02*
X431729Y-12731960D01*
X431729Y-12731960D02*
X441253Y-12722436D01*
X441253Y-12722436D02*
X441253Y-12741484D01*
X622205Y-12541484D02*
X584110Y-12541484D01*
X584110Y-12541484D02*
X565062Y-12551008D01*
X565062Y-12551008D02*
X555539Y-12560531D01*
X555539Y-12560531D02*
X536491Y-12589103D01*
X536491Y-12589103D02*
X526967Y-12627198D01*
X526967Y-12627198D02*
X526967Y-12703389D01*
X526967Y-12703389D02*
X536491Y-12722436D01*
X536491Y-12722436D02*
X546015Y-12731960D01*
X546015Y-12731960D02*
X565062Y-12741484D01*
X565062Y-12741484D02*
X603158Y-12741484D01*
X603158Y-12741484D02*
X622205Y-12731960D01*
X622205Y-12731960D02*
X631729Y-12722436D01*
X631729Y-12722436D02*
X641253Y-12703389D01*
X641253Y-12703389D02*
X641253Y-12655770D01*
X641253Y-12655770D02*
X631729Y-12636722D01*
X631729Y-12636722D02*
X622205Y-12627198D01*
X622205Y-12627198D02*
X603158Y-12617674D01*
X603158Y-12617674D02*
X565062Y-12617674D01*
X565062Y-12617674D02*
X546015Y-12627198D01*
X546015Y-12627198D02*
X536491Y-12636722D01*
X536491Y-12636722D02*
X526967Y-12655770D01*
X822205Y-12541484D02*
X726967Y-12541484D01*
X726967Y-12541484D02*
X717443Y-12636722D01*
X717443Y-12636722D02*
X726967Y-12627198D01*
X726967Y-12627198D02*
X746015Y-12617674D01*
X746015Y-12617674D02*
X793634Y-12617674D01*
X793634Y-12617674D02*
X812681Y-12627198D01*
X812681Y-12627198D02*
X822205Y-12636722D01*
X822205Y-12636722D02*
X831729Y-12655770D01*
X831729Y-12655770D02*
X831729Y-12703389D01*
X831729Y-12703389D02*
X822205Y-12722436D01*
X822205Y-12722436D02*
X812681Y-12731960D01*
X812681Y-12731960D02*
X793634Y-12741484D01*
X793634Y-12741484D02*
X746015Y-12741484D01*
X746015Y-12741484D02*
X726967Y-12731960D01*
X726967Y-12731960D02*
X717443Y-12722436D01*
X955539Y-12541484D02*
X974586Y-12541484D01*
X974586Y-12541484D02*
X993634Y-12551008D01*
X993634Y-12551008D02*
X1003158Y-12560531D01*
X1003158Y-12560531D02*
X1012681Y-12579579D01*
X1012681Y-12579579D02*
X1022205Y-12617674D01*
X1022205Y-12617674D02*
X1022205Y-12665293D01*
X1022205Y-12665293D02*
X1012681Y-12703389D01*
X1012681Y-12703389D02*
X1003158Y-12722436D01*
X1003158Y-12722436D02*
X993634Y-12731960D01*
X993634Y-12731960D02*
X974586Y-12741484D01*
X974586Y-12741484D02*
X955539Y-12741484D01*
X955539Y-12741484D02*
X936491Y-12731960D01*
X936491Y-12731960D02*
X926967Y-12722436D01*
X926967Y-12722436D02*
X917443Y-12703389D01*
X917443Y-12703389D02*
X907920Y-12665293D01*
X907920Y-12665293D02*
X907920Y-12617674D01*
X907920Y-12617674D02*
X917443Y-12579579D01*
X917443Y-12579579D02*
X926967Y-12560531D01*
X926967Y-12560531D02*
X936491Y-12551008D01*
X936491Y-12551008D02*
X955539Y-12541484D01*
X1107920Y-12741484D02*
X1107920Y-12608150D01*
X1107920Y-12627198D02*
X1117443Y-12617674D01*
X1117443Y-12617674D02*
X1136491Y-12608150D01*
X1136491Y-12608150D02*
X1165063Y-12608150D01*
X1165063Y-12608150D02*
X1184110Y-12617674D01*
X1184110Y-12617674D02*
X1193634Y-12636722D01*
X1193634Y-12636722D02*
X1193634Y-12741484D01*
X1193634Y-12636722D02*
X1203158Y-12617674D01*
X1203158Y-12617674D02*
X1222205Y-12608150D01*
X1222205Y-12608150D02*
X1250777Y-12608150D01*
X1250777Y-12608150D02*
X1269824Y-12617674D01*
X1269824Y-12617674D02*
X1279348Y-12636722D01*
X1279348Y-12636722D02*
X1279348Y-12741484D01*
X1374586Y-12741484D02*
X1374586Y-12608150D01*
X1374586Y-12627198D02*
X1384110Y-12617674D01*
X1384110Y-12617674D02*
X1403158Y-12608150D01*
X1403158Y-12608150D02*
X1431729Y-12608150D01*
X1431729Y-12608150D02*
X1450777Y-12617674D01*
X1450777Y-12617674D02*
X1460301Y-12636722D01*
X1460301Y-12636722D02*
X1460301Y-12741484D01*
X1460301Y-12636722D02*
X1469824Y-12617674D01*
X1469824Y-12617674D02*
X1488872Y-12608150D01*
X1488872Y-12608150D02*
X1517443Y-12608150D01*
X1517443Y-12608150D02*
X1536491Y-12617674D01*
X1536491Y-12617674D02*
X1546015Y-12636722D01*
X1546015Y-12636722D02*
X1546015Y-12741484D01*
X1936491Y-12531960D02*
X1765063Y-12789103D01*
X2193634Y-12541484D02*
X2212682Y-12541484D01*
X2212682Y-12541484D02*
X2231729Y-12551008D01*
X2231729Y-12551008D02*
X2241253Y-12560531D01*
X2241253Y-12560531D02*
X2250777Y-12579579D01*
X2250777Y-12579579D02*
X2260301Y-12617674D01*
X2260301Y-12617674D02*
X2260301Y-12665293D01*
X2260301Y-12665293D02*
X2250777Y-12703389D01*
X2250777Y-12703389D02*
X2241253Y-12722436D01*
X2241253Y-12722436D02*
X2231729Y-12731960D01*
X2231729Y-12731960D02*
X2212682Y-12741484D01*
X2212682Y-12741484D02*
X2193634Y-12741484D01*
X2193634Y-12741484D02*
X2174586Y-12731960D01*
X2174586Y-12731960D02*
X2165063Y-12722436D01*
X2165063Y-12722436D02*
X2155539Y-12703389D01*
X2155539Y-12703389D02*
X2146015Y-12665293D01*
X2146015Y-12665293D02*
X2146015Y-12617674D01*
X2146015Y-12617674D02*
X2155539Y-12579579D01*
X2155539Y-12579579D02*
X2165063Y-12560531D01*
X2165063Y-12560531D02*
X2174586Y-12551008D01*
X2174586Y-12551008D02*
X2193634Y-12541484D01*
X2346015Y-12722436D02*
X2355539Y-12731960D01*
X2355539Y-12731960D02*
X2346015Y-12741484D01*
X2346015Y-12741484D02*
X2336491Y-12731960D01*
X2336491Y-12731960D02*
X2346015Y-12722436D01*
X2346015Y-12722436D02*
X2346015Y-12741484D01*
X2479348Y-12541484D02*
X2498396Y-12541484D01*
X2498396Y-12541484D02*
X2517444Y-12551008D01*
X2517444Y-12551008D02*
X2526967Y-12560531D01*
X2526967Y-12560531D02*
X2536491Y-12579579D01*
X2536491Y-12579579D02*
X2546015Y-12617674D01*
X2546015Y-12617674D02*
X2546015Y-12665293D01*
X2546015Y-12665293D02*
X2536491Y-12703389D01*
X2536491Y-12703389D02*
X2526967Y-12722436D01*
X2526967Y-12722436D02*
X2517444Y-12731960D01*
X2517444Y-12731960D02*
X2498396Y-12741484D01*
X2498396Y-12741484D02*
X2479348Y-12741484D01*
X2479348Y-12741484D02*
X2460301Y-12731960D01*
X2460301Y-12731960D02*
X2450777Y-12722436D01*
X2450777Y-12722436D02*
X2441253Y-12703389D01*
X2441253Y-12703389D02*
X2431729Y-12665293D01*
X2431729Y-12665293D02*
X2431729Y-12617674D01*
X2431729Y-12617674D02*
X2441253Y-12579579D01*
X2441253Y-12579579D02*
X2450777Y-12560531D01*
X2450777Y-12560531D02*
X2460301Y-12551008D01*
X2460301Y-12551008D02*
X2479348Y-12541484D01*
X2622206Y-12560531D02*
X2631729Y-12551008D01*
X2631729Y-12551008D02*
X2650777Y-12541484D01*
X2650777Y-12541484D02*
X2698396Y-12541484D01*
X2698396Y-12541484D02*
X2717444Y-12551008D01*
X2717444Y-12551008D02*
X2726967Y-12560531D01*
X2726967Y-12560531D02*
X2736491Y-12579579D01*
X2736491Y-12579579D02*
X2736491Y-12598627D01*
X2736491Y-12598627D02*
X2726967Y-12627198D01*
X2726967Y-12627198D02*
X2612682Y-12741484D01*
X2612682Y-12741484D02*
X2736491Y-12741484D01*
X2917444Y-12541484D02*
X2822205Y-12541484D01*
X2822205Y-12541484D02*
X2812682Y-12636722D01*
X2812682Y-12636722D02*
X2822205Y-12627198D01*
X2822205Y-12627198D02*
X2841253Y-12617674D01*
X2841253Y-12617674D02*
X2888872Y-12617674D01*
X2888872Y-12617674D02*
X2907920Y-12627198D01*
X2907920Y-12627198D02*
X2917444Y-12636722D01*
X2917444Y-12636722D02*
X2926967Y-12655770D01*
X2926967Y-12655770D02*
X2926967Y-12703389D01*
X2926967Y-12703389D02*
X2917444Y-12722436D01*
X2917444Y-12722436D02*
X2907920Y-12731960D01*
X2907920Y-12731960D02*
X2888872Y-12741484D01*
X2888872Y-12741484D02*
X2841253Y-12741484D01*
X2841253Y-12741484D02*
X2822205Y-12731960D01*
X2822205Y-12731960D02*
X2812682Y-12722436D01*
X3098396Y-12541484D02*
X3060301Y-12541484D01*
X3060301Y-12541484D02*
X3041253Y-12551008D01*
X3041253Y-12551008D02*
X3031729Y-12560531D01*
X3031729Y-12560531D02*
X3012682Y-12589103D01*
X3012682Y-12589103D02*
X3003158Y-12627198D01*
X3003158Y-12627198D02*
X3003158Y-12703389D01*
X3003158Y-12703389D02*
X3012682Y-12722436D01*
X3012682Y-12722436D02*
X3022205Y-12731960D01*
X3022205Y-12731960D02*
X3041253Y-12741484D01*
X3041253Y-12741484D02*
X3079348Y-12741484D01*
X3079348Y-12741484D02*
X3098396Y-12731960D01*
X3098396Y-12731960D02*
X3107920Y-12722436D01*
X3107920Y-12722436D02*
X3117444Y-12703389D01*
X3117444Y-12703389D02*
X3117444Y-12655770D01*
X3117444Y-12655770D02*
X3107920Y-12636722D01*
X3107920Y-12636722D02*
X3098396Y-12627198D01*
X3098396Y-12627198D02*
X3079348Y-12617674D01*
X3079348Y-12617674D02*
X3041253Y-12617674D01*
X3041253Y-12617674D02*
X3022205Y-12627198D01*
X3022205Y-12627198D02*
X3012682Y-12636722D01*
X3012682Y-12636722D02*
X3003158Y-12655770D01*
X3193634Y-12541484D02*
X3193634Y-12579579D01*
X3269825Y-12541484D02*
X3269825Y-12579579D01*
X3565063Y-12817674D02*
X3555539Y-12808150D01*
X3555539Y-12808150D02*
X3536491Y-12779579D01*
X3536491Y-12779579D02*
X3526967Y-12760531D01*
X3526967Y-12760531D02*
X3517444Y-12731960D01*
X3517444Y-12731960D02*
X3507920Y-12684341D01*
X3507920Y-12684341D02*
X3507920Y-12646246D01*
X3507920Y-12646246D02*
X3517444Y-12598627D01*
X3517444Y-12598627D02*
X3526967Y-12570055D01*
X3526967Y-12570055D02*
X3536491Y-12551008D01*
X3536491Y-12551008D02*
X3555539Y-12522436D01*
X3555539Y-12522436D02*
X3565063Y-12512912D01*
X3631729Y-12560531D02*
X3641253Y-12551008D01*
X3641253Y-12551008D02*
X3660301Y-12541484D01*
X3660301Y-12541484D02*
X3707920Y-12541484D01*
X3707920Y-12541484D02*
X3726967Y-12551008D01*
X3726967Y-12551008D02*
X3736491Y-12560531D01*
X3736491Y-12560531D02*
X3746015Y-12579579D01*
X3746015Y-12579579D02*
X3746015Y-12598627D01*
X3746015Y-12598627D02*
X3736491Y-12627198D01*
X3736491Y-12627198D02*
X3622206Y-12741484D01*
X3622206Y-12741484D02*
X3746015Y-12741484D01*
X3984110Y-12741484D02*
X3984110Y-12541484D01*
X4069825Y-12741484D02*
X4069825Y-12636722D01*
X4069825Y-12636722D02*
X4060301Y-12617674D01*
X4060301Y-12617674D02*
X4041253Y-12608150D01*
X4041253Y-12608150D02*
X4012682Y-12608150D01*
X4012682Y-12608150D02*
X3993634Y-12617674D01*
X3993634Y-12617674D02*
X3984110Y-12627198D01*
X4193634Y-12741484D02*
X4174587Y-12731960D01*
X4174587Y-12731960D02*
X4165063Y-12722436D01*
X4165063Y-12722436D02*
X4155539Y-12703389D01*
X4155539Y-12703389D02*
X4155539Y-12646246D01*
X4155539Y-12646246D02*
X4165063Y-12627198D01*
X4165063Y-12627198D02*
X4174587Y-12617674D01*
X4174587Y-12617674D02*
X4193634Y-12608150D01*
X4193634Y-12608150D02*
X4222206Y-12608150D01*
X4222206Y-12608150D02*
X4241253Y-12617674D01*
X4241253Y-12617674D02*
X4250777Y-12627198D01*
X4250777Y-12627198D02*
X4260301Y-12646246D01*
X4260301Y-12646246D02*
X4260301Y-12703389D01*
X4260301Y-12703389D02*
X4250777Y-12722436D01*
X4250777Y-12722436D02*
X4241253Y-12731960D01*
X4241253Y-12731960D02*
X4222206Y-12741484D01*
X4222206Y-12741484D02*
X4193634Y-12741484D01*
X4374587Y-12741484D02*
X4355539Y-12731960D01*
X4355539Y-12731960D02*
X4346015Y-12712912D01*
X4346015Y-12712912D02*
X4346015Y-12541484D01*
X4526968Y-12731960D02*
X4507920Y-12741484D01*
X4507920Y-12741484D02*
X4469825Y-12741484D01*
X4469825Y-12741484D02*
X4450777Y-12731960D01*
X4450777Y-12731960D02*
X4441253Y-12712912D01*
X4441253Y-12712912D02*
X4441253Y-12636722D01*
X4441253Y-12636722D02*
X4450777Y-12617674D01*
X4450777Y-12617674D02*
X4469825Y-12608150D01*
X4469825Y-12608150D02*
X4507920Y-12608150D01*
X4507920Y-12608150D02*
X4526968Y-12617674D01*
X4526968Y-12617674D02*
X4536491Y-12636722D01*
X4536491Y-12636722D02*
X4536491Y-12655770D01*
X4536491Y-12655770D02*
X4441253Y-12674817D01*
X4612682Y-12731960D02*
X4631730Y-12741484D01*
X4631730Y-12741484D02*
X4669825Y-12741484D01*
X4669825Y-12741484D02*
X4688872Y-12731960D01*
X4688872Y-12731960D02*
X4698396Y-12712912D01*
X4698396Y-12712912D02*
X4698396Y-12703389D01*
X4698396Y-12703389D02*
X4688872Y-12684341D01*
X4688872Y-12684341D02*
X4669825Y-12674817D01*
X4669825Y-12674817D02*
X4641253Y-12674817D01*
X4641253Y-12674817D02*
X4622206Y-12665293D01*
X4622206Y-12665293D02*
X4612682Y-12646246D01*
X4612682Y-12646246D02*
X4612682Y-12636722D01*
X4612682Y-12636722D02*
X4622206Y-12617674D01*
X4622206Y-12617674D02*
X4641253Y-12608150D01*
X4641253Y-12608150D02*
X4669825Y-12608150D01*
X4669825Y-12608150D02*
X4688872Y-12617674D01*
X4765063Y-12817674D02*
X4774587Y-12808150D01*
X4774587Y-12808150D02*
X4793634Y-12779579D01*
X4793634Y-12779579D02*
X4803158Y-12760531D01*
X4803158Y-12760531D02*
X4812682Y-12731960D01*
X4812682Y-12731960D02*
X4822206Y-12684341D01*
X4822206Y-12684341D02*
X4822206Y-12646246D01*
X4822206Y-12646246D02*
X4812682Y-12598627D01*
X4812682Y-12598627D02*
X4803158Y-12570055D01*
X4803158Y-12570055D02*
X4793634Y-12551008D01*
X4793634Y-12551008D02*
X4774587Y-12522436D01*
X4774587Y-12522436D02*
X4765063Y-12512912D01*
X5126968Y-12817674D02*
X5117444Y-12808150D01*
X5117444Y-12808150D02*
X5098396Y-12779579D01*
X5098396Y-12779579D02*
X5088872Y-12760531D01*
X5088872Y-12760531D02*
X5079349Y-12731960D01*
X5079349Y-12731960D02*
X5069825Y-12684341D01*
X5069825Y-12684341D02*
X5069825Y-12646246D01*
X5069825Y-12646246D02*
X5079349Y-12598627D01*
X5079349Y-12598627D02*
X5088872Y-12570055D01*
X5088872Y-12570055D02*
X5098396Y-12551008D01*
X5098396Y-12551008D02*
X5117444Y-12522436D01*
X5117444Y-12522436D02*
X5126968Y-12512912D01*
X5203158Y-12608150D02*
X5203158Y-12741484D01*
X5203158Y-12627198D02*
X5212682Y-12617674D01*
X5212682Y-12617674D02*
X5231730Y-12608150D01*
X5231730Y-12608150D02*
X5260301Y-12608150D01*
X5260301Y-12608150D02*
X5279349Y-12617674D01*
X5279349Y-12617674D02*
X5288872Y-12636722D01*
X5288872Y-12636722D02*
X5288872Y-12741484D01*
X5412682Y-12741484D02*
X5393634Y-12731960D01*
X5393634Y-12731960D02*
X5384111Y-12722436D01*
X5384111Y-12722436D02*
X5374587Y-12703389D01*
X5374587Y-12703389D02*
X5374587Y-12646246D01*
X5374587Y-12646246D02*
X5384111Y-12627198D01*
X5384111Y-12627198D02*
X5393634Y-12617674D01*
X5393634Y-12617674D02*
X5412682Y-12608150D01*
X5412682Y-12608150D02*
X5441253Y-12608150D01*
X5441253Y-12608150D02*
X5460301Y-12617674D01*
X5460301Y-12617674D02*
X5469825Y-12627198D01*
X5469825Y-12627198D02*
X5479349Y-12646246D01*
X5479349Y-12646246D02*
X5479349Y-12703389D01*
X5479349Y-12703389D02*
X5469825Y-12722436D01*
X5469825Y-12722436D02*
X5460301Y-12731960D01*
X5460301Y-12731960D02*
X5441253Y-12741484D01*
X5441253Y-12741484D02*
X5412682Y-12741484D01*
X5536492Y-12608150D02*
X5612682Y-12608150D01*
X5565063Y-12541484D02*
X5565063Y-12712912D01*
X5565063Y-12712912D02*
X5574587Y-12731960D01*
X5574587Y-12731960D02*
X5593634Y-12741484D01*
X5593634Y-12741484D02*
X5612682Y-12741484D01*
X5831730Y-12608150D02*
X5831730Y-12808150D01*
X5831730Y-12617674D02*
X5850777Y-12608150D01*
X5850777Y-12608150D02*
X5888872Y-12608150D01*
X5888872Y-12608150D02*
X5907920Y-12617674D01*
X5907920Y-12617674D02*
X5917444Y-12627198D01*
X5917444Y-12627198D02*
X5926968Y-12646246D01*
X5926968Y-12646246D02*
X5926968Y-12703389D01*
X5926968Y-12703389D02*
X5917444Y-12722436D01*
X5917444Y-12722436D02*
X5907920Y-12731960D01*
X5907920Y-12731960D02*
X5888872Y-12741484D01*
X5888872Y-12741484D02*
X5850777Y-12741484D01*
X5850777Y-12741484D02*
X5831730Y-12731960D01*
X6041253Y-12741484D02*
X6022206Y-12731960D01*
X6022206Y-12731960D02*
X6012682Y-12712912D01*
X6012682Y-12712912D02*
X6012682Y-12541484D01*
X6203158Y-12741484D02*
X6203158Y-12636722D01*
X6203158Y-12636722D02*
X6193634Y-12617674D01*
X6193634Y-12617674D02*
X6174587Y-12608150D01*
X6174587Y-12608150D02*
X6136491Y-12608150D01*
X6136491Y-12608150D02*
X6117444Y-12617674D01*
X6203158Y-12731960D02*
X6184111Y-12741484D01*
X6184111Y-12741484D02*
X6136491Y-12741484D01*
X6136491Y-12741484D02*
X6117444Y-12731960D01*
X6117444Y-12731960D02*
X6107920Y-12712912D01*
X6107920Y-12712912D02*
X6107920Y-12693865D01*
X6107920Y-12693865D02*
X6117444Y-12674817D01*
X6117444Y-12674817D02*
X6136491Y-12665293D01*
X6136491Y-12665293D02*
X6184111Y-12665293D01*
X6184111Y-12665293D02*
X6203158Y-12655770D01*
X6269825Y-12608150D02*
X6346015Y-12608150D01*
X6298396Y-12541484D02*
X6298396Y-12712912D01*
X6298396Y-12712912D02*
X6307920Y-12731960D01*
X6307920Y-12731960D02*
X6326968Y-12741484D01*
X6326968Y-12741484D02*
X6346015Y-12741484D01*
X6488872Y-12731960D02*
X6469825Y-12741484D01*
X6469825Y-12741484D02*
X6431730Y-12741484D01*
X6431730Y-12741484D02*
X6412682Y-12731960D01*
X6412682Y-12731960D02*
X6403158Y-12712912D01*
X6403158Y-12712912D02*
X6403158Y-12636722D01*
X6403158Y-12636722D02*
X6412682Y-12617674D01*
X6412682Y-12617674D02*
X6431730Y-12608150D01*
X6431730Y-12608150D02*
X6469825Y-12608150D01*
X6469825Y-12608150D02*
X6488872Y-12617674D01*
X6488872Y-12617674D02*
X6498396Y-12636722D01*
X6498396Y-12636722D02*
X6498396Y-12655770D01*
X6498396Y-12655770D02*
X6403158Y-12674817D01*
X6669825Y-12741484D02*
X6669825Y-12541484D01*
X6669825Y-12731960D02*
X6650777Y-12741484D01*
X6650777Y-12741484D02*
X6612682Y-12741484D01*
X6612682Y-12741484D02*
X6593634Y-12731960D01*
X6593634Y-12731960D02*
X6584111Y-12722436D01*
X6584111Y-12722436D02*
X6574587Y-12703389D01*
X6574587Y-12703389D02*
X6574587Y-12646246D01*
X6574587Y-12646246D02*
X6584111Y-12627198D01*
X6584111Y-12627198D02*
X6593634Y-12617674D01*
X6593634Y-12617674D02*
X6612682Y-12608150D01*
X6612682Y-12608150D02*
X6650777Y-12608150D01*
X6650777Y-12608150D02*
X6669825Y-12617674D01*
X6746015Y-12817674D02*
X6755539Y-12808150D01*
X6755539Y-12808150D02*
X6774587Y-12779579D01*
X6774587Y-12779579D02*
X6784111Y-12760531D01*
X6784111Y-12760531D02*
X6793634Y-12731960D01*
X6793634Y-12731960D02*
X6803158Y-12684341D01*
X6803158Y-12684341D02*
X6803158Y-12646246D01*
X6803158Y-12646246D02*
X6793634Y-12598627D01*
X6793634Y-12598627D02*
X6784111Y-12570055D01*
X6784111Y-12570055D02*
X6774587Y-12551008D01*
X6774587Y-12551008D02*
X6755539Y-12522436D01*
X6755539Y-12522436D02*
X6746015Y-12512912D01*
M02*
