M48
; DRILL file {KiCad 8.0.2} date 2024-05-01T18:56:43+0200
; FORMAT={-:-/ absolute / metric / decimal}
; #@! TF.CreationDate,2024-05-01T18:56:43+02:00
; #@! TF.GenerationSoftware,Kicad,Pcbnew,8.0.2
; #@! TF.FileFunction,Plated,1,2,PTH
FMAT,2
METRIC
; #@! TA.AperFunction,Plated,PTH,ComponentDrill
T1C0.200
; #@! TA.AperFunction,Plated,PTH,ViaDrill
T2C0.400
; #@! TA.AperFunction,Plated,PTH,ComponentDrill
T3C0.600
; #@! TA.AperFunction,Plated,PTH,ComponentDrill
T4C0.800
; #@! TA.AperFunction,Plated,PTH,ComponentDrill
T5C0.900
; #@! TA.AperFunction,Plated,PTH,ComponentDrill
T6C0.950
; #@! TA.AperFunction,Plated,PTH,ComponentDrill
T7C1.000
; #@! TA.AperFunction,Plated,PTH,ComponentDrill
T8C1.200
; #@! TA.AperFunction,Plated,PTH,ComponentDrill
T9C1.500
%
G90
G05
T1
X7.365Y-68.453
X7.365Y-69.977
X8.127Y-67.69
X8.127Y-69.215
X8.127Y-70.74
X8.89Y-68.453
X8.89Y-69.977
X9.652Y-67.69
X9.652Y-69.215
X9.652Y-70.74
X10.415Y-68.453
X10.415Y-69.977
T2
X2.794Y-62.992
X4.064Y-75.184
X5.588Y-73.152
X6.604Y-53.34
X6.604Y-73.854
X7.62Y-74.676
X8.128Y-14.986
X8.128Y-38.608
X8.128Y-61.976
X8.29Y-44.517
X8.382Y-33.782
X8.694Y-75.325
X9.12Y-37.06
X9.144Y-30.734
X9.144Y-39.624
X9.144Y-40.64
X10.16Y-35.56
X10.668Y-27.432
X10.668Y-80.772
X10.922Y-14.986
X11.176Y-35.56
X11.684Y-74.168
X11.684Y-81.788
X12.192Y-34.544
X12.192Y-35.56
X12.7Y-71.434
X12.954Y-32.512
X12.958Y-74.45
X13.462Y-10.668
X14.224Y-53.848
X14.224Y-54.864
X14.352Y-74.854
X14.732Y-52.832
X15.748Y-54.864
X15.748Y-75.257
X16.256Y-52.638
X16.256Y-71.031
X17.272Y-75.692
X17.78Y-36.068
X21.336Y-62.992
X23.622Y-53.086
X24.384Y-65.532
X25.4Y-45.212
X25.4Y-56.388
X26.107Y-45.919
X27.178Y-70.104
X27.432Y-46.736
X28.194Y-65.532
X28.194Y-69.596
X29.464Y-23.368
X29.972Y-68.326
X30.226Y-82.55
X30.48Y-40.894
X30.48Y-78.232
X30.988Y-26.924
X30.988Y-39.116
X31.75Y-46.99
X31.75Y-54.356
X33.528Y-54.61
X34.036Y-67.31
X34.29Y-83.312
X35.052Y-47.558
X35.156Y-76.747
X35.318Y-69.69
X36.068Y-47.558
X36.068Y-76.2
X36.073Y-70.346
X36.7Y-101.7
X37.084Y-83.82
X37.338Y-67.31
X37.338Y-68.834
X37.338Y-77.724
X37.338Y-79.248
X37.592Y-52.832
X37.846Y-24.13
X39.116Y-54.864
X39.37Y-38.862
X39.878Y-36.83
X40.386Y-67.31
X40.64Y-79.054
X41.91Y-53.086
X42.926Y-30.734
X42.926Y-64.516
X43.18Y-48.768
X44.196Y-49.47
X46.99Y-67.31
X47.244Y-79.054
X48.768Y-56.642
X49.53Y-64.516
X51.5Y-23.8
X51.816Y-52.832
X53.34Y-54.864
X53.7Y-21.8
X53.848Y-67.31
X54.102Y-79.054
X55.88Y-52.832
X56.896Y-48.768
X56.9Y-26.8
X57.5Y-21.8
X58.2Y-26.7
X58.42Y-43.16
X58.42Y-49.47
X58.928Y-57.912
X58.928Y-60.96
X59.436Y-43.16
X59.5Y-26.7
X59.944Y-59.944
X60.452Y-43.16
X60.706Y-53.848
X60.8Y-26.7
X60.96Y-59.944
X60.96Y-93.98
X61.3Y-15.8
X61.468Y-43.16
X61.468Y-67.31
X61.468Y-89.408
X61.976Y-59.944
X62.126Y-26.726
X62.23Y-79.054
X62.484Y-43.16
X62.992Y-59.944
X63.246Y-93.98
X63.401Y-26.801
X63.5Y-43.16
X63.754Y-64.77
X63.814Y-49.784
X64.008Y-59.944
X64.516Y-43.16
X64.727Y-26.827
X64.9Y-15.9
X65.024Y-59.944
X65.532Y-43.16
X65.786Y-89.408
X66.04Y-59.944
X66.1Y-27.3
X68.2Y-15.9
X68.326Y-67.31
X68.58Y-37.318
X69.088Y-79.054
X69.85Y-53.086
X70.104Y-49.276
X71.12Y-58.42
X71.8Y-16.0
X72.644Y-49.47
X72.644Y-58.42
X72.898Y-85.09
X73.66Y-58.42
X74.168Y-79.756
X74.946Y-67.31
X75.3Y-16.0
X75.438Y-79.502
X75.438Y-85.09
X76.3Y-26.6
X76.454Y-41.89
X76.454Y-85.15
X77.216Y-43.16
X77.7Y-26.6
X78.232Y-43.16
X79.2Y-26.6
X79.248Y-43.16
X80.264Y-43.16
X80.5Y-26.6
X81.28Y-43.16
X81.28Y-58.42
X81.788Y-49.784
X81.8Y-26.6
X82.296Y-43.16
X82.296Y-58.42
X83.1Y-26.6
X83.312Y-43.16
X83.312Y-58.42
X84.3Y-26.6
X84.328Y-43.16
X84.328Y-58.42
X85.03Y-48.962
X85.2Y-15.8
X85.5Y-26.6
X85.598Y-53.848
X86.868Y-49.276
X87.6Y-26.6
X88.7Y-15.8
X92.3Y-15.7
X95.504Y-89.662
X95.7Y-15.9
X96.774Y-93.726
X97.028Y-80.772
X98.044Y-85.09
X98.298Y-80.772
X99.3Y-15.8
X99.314Y-89.662
X99.314Y-93.726
X99.518Y-45.162
X100.076Y-47.244
X102.61Y-15.71
X103.124Y-51.308
X104.14Y-53.34
X104.394Y-51.562
X106.4Y-15.6
X106.68Y-51.308
X106.68Y-64.008
X107.696Y-45.212
X107.696Y-47.752
X107.696Y-51.308
X108.1Y-40.286
X109.22Y-53.34
X109.22Y-60.96
X109.22Y-66.294
X111.76Y-64.008
X112.014Y-49.53
X113.7Y-18.5
X114.3Y-60.96
X114.3Y-66.294
X115.57Y-81.026
X116.84Y-64.008
X117.348Y-51.816
X117.359Y-49.217
X119.38Y-60.96
X119.38Y-66.548
X119.9Y-18.9
X120.396Y-43.688
X120.396Y-47.244
X120.904Y-81.28
X121.92Y-64.008
X124.46Y-60.96
X124.714Y-48.514
X124.968Y-50.546
X124.968Y-66.548
X125.984Y-45.212
X126.492Y-89.662
X127.0Y-49.276
X127.0Y-81.28
X127.762Y-93.98
X128.016Y-51.816
X128.1Y-30.3
X128.2Y-23.3
X128.27Y-62.992
X128.778Y-85.09
X130.048Y-94.234
X130.302Y-89.662
X130.556Y-60.96
X132.08Y-81.28
X133.096Y-48.26
X133.35Y-63.754
X134.112Y-45.212
X135.636Y-60.96
X138.43Y-64.008
X140.716Y-60.96
X142.748Y-45.212
X142.748Y-47.752
X142.748Y-54.864
X143.51Y-64.008
X143.764Y-60.96
X151.892Y-44.196
X151.892Y-51.308
X154.686Y-52.07
X155.956Y-46.99
X156.972Y-48.768
X156.972Y-64.008
X156.972Y-85.09
X156.972Y-93.98
X157.226Y-89.662
X157.988Y-46.228
X159.258Y-93.98
X159.512Y-45.212
X159.512Y-47.752
X159.512Y-89.662
X160.02Y-64.008
X160.02Y-69.088
X161.29Y-57.404
X163.576Y-70.358
X163.83Y-60.198
X164.084Y-65.278
X167.386Y-62.738
X167.386Y-67.818
X180.1Y-40.9
X180.1Y-42.6
X180.1Y-44.3
X180.1Y-46.0
X181.8Y-48.8
X185.7Y-67.7
X185.8Y-63.2
X187.706Y-84.582
T4
X13.0Y-87.3
X13.0Y-100.0
X15.54Y-87.3
X15.54Y-100.0
X18.07Y-91.13
X18.07Y-93.67
X18.07Y-96.21
X18.08Y-87.3
X18.08Y-100.0
X20.62Y-87.3
X20.62Y-100.0
X23.16Y-87.3
X23.16Y-100.0
X25.69Y-91.13
X25.69Y-93.67
X25.69Y-96.21
X25.7Y-87.3
X25.7Y-100.0
X28.24Y-87.3
X28.24Y-100.0
X30.78Y-87.3
X30.78Y-100.0
X45.466Y-87.3
X45.466Y-100.0
X48.006Y-87.3
X48.006Y-100.0
X50.536Y-91.13
X50.536Y-93.67
X50.536Y-96.21
X50.546Y-87.3
X50.546Y-100.0
X53.086Y-87.3
X53.086Y-100.0
X55.626Y-87.3
X55.626Y-100.0
X57.572Y-30.0
X57.572Y-31.5
X57.572Y-33.0
X58.156Y-91.13
X58.156Y-93.67
X58.156Y-96.21
X58.166Y-87.3
X58.166Y-100.0
X59.072Y-30.0
X59.072Y-31.5
X59.072Y-33.0
X60.572Y-30.0
X60.572Y-31.5
X60.572Y-33.0
X60.706Y-87.3
X60.706Y-100.0
X62.072Y-30.0
X62.072Y-31.5
X62.072Y-33.0
X63.246Y-87.3
X63.246Y-100.0
X63.572Y-30.0
X63.572Y-31.5
X63.572Y-33.0
X65.072Y-30.0
X65.072Y-31.5
X65.072Y-33.0
X66.572Y-30.0
X66.572Y-31.5
X66.572Y-33.0
X77.264Y-30.0
X77.264Y-31.5
X77.264Y-33.0
X77.734Y-87.61
X77.734Y-100.31
X78.764Y-30.0
X78.764Y-31.5
X78.764Y-33.0
X80.264Y-30.0
X80.264Y-31.5
X80.264Y-33.0
X80.274Y-87.61
X80.274Y-100.31
X81.764Y-30.0
X81.764Y-31.5
X81.764Y-33.0
X82.804Y-91.44
X82.804Y-93.98
X82.804Y-96.52
X82.814Y-87.61
X82.814Y-100.31
X83.264Y-30.0
X83.264Y-31.5
X83.264Y-33.0
X84.764Y-30.0
X84.764Y-31.5
X84.764Y-33.0
X85.354Y-87.61
X85.354Y-100.31
X86.264Y-30.0
X86.264Y-31.5
X86.264Y-33.0
X87.894Y-87.61
X87.894Y-100.31
X90.424Y-91.44
X90.424Y-93.98
X90.424Y-96.52
X90.434Y-87.61
X90.434Y-100.31
X92.974Y-87.61
X92.974Y-100.31
X95.514Y-87.61
X95.514Y-100.31
X109.812Y-87.808
X109.812Y-100.508
X112.352Y-87.808
X112.352Y-100.508
X114.892Y-87.808
X114.892Y-100.508
X115.052Y-91.45
X115.052Y-93.99
X115.052Y-96.53
X117.432Y-87.808
X117.432Y-100.508
X119.972Y-87.808
X119.972Y-100.508
X122.512Y-87.808
X122.512Y-100.508
X122.672Y-91.45
X122.672Y-93.99
X122.672Y-96.53
X125.052Y-87.808
X125.052Y-100.508
X127.592Y-87.808
X127.592Y-100.508
X141.742Y-87.61
X141.742Y-100.31
X144.282Y-87.61
X144.282Y-100.31
X146.812Y-91.44
X146.812Y-93.98
X146.812Y-96.52
X146.822Y-87.61
X146.822Y-100.31
X149.362Y-87.61
X149.362Y-100.31
X151.902Y-87.61
X151.902Y-100.31
X154.432Y-91.44
X154.432Y-93.98
X154.432Y-96.52
X154.442Y-87.61
X154.442Y-100.31
X156.982Y-87.61
X156.982Y-100.31
X159.522Y-87.61
X159.522Y-100.31
X173.746Y-87.3
X173.746Y-100.0
X176.286Y-87.3
X176.286Y-100.0
X178.816Y-91.13
X178.816Y-93.67
X178.816Y-96.21
X178.826Y-87.3
X178.826Y-100.0
X181.366Y-87.3
X181.366Y-100.0
X183.906Y-87.3
X183.906Y-100.0
X186.436Y-91.13
X186.436Y-93.67
X186.436Y-96.21
X186.446Y-87.3
X186.446Y-100.0
X188.986Y-87.3
X188.986Y-100.0
X191.526Y-87.3
X191.526Y-100.0
T5
X16.804Y-16.804
X16.804Y-21.804
X21.804Y-19.304
X34.624Y-16.804
X34.624Y-21.804
X39.624Y-19.304
T6
X3.168Y-49.784
X5.668Y-49.784
X8.168Y-49.784
X10.668Y-49.784
X13.168Y-49.784
X15.668Y-49.784
T7
X24.907Y-17.526
X27.447Y-17.526
X29.987Y-17.526
X42.672Y-17.526
X45.212Y-17.526
X47.752Y-17.526
T8
X12.416Y-106.76
X12.416Y-111.76
X15.916Y-106.76
X15.916Y-111.76
X17.384Y-7.62
X17.384Y-12.62
X19.416Y-106.76
X19.416Y-111.76
X20.884Y-7.62
X20.884Y-12.62
X22.916Y-106.76
X22.916Y-111.76
X24.384Y-7.62
X24.384Y-12.62
X26.416Y-106.76
X26.416Y-111.76
X27.884Y-7.62
X27.884Y-12.62
X32.004Y-106.76
X32.004Y-111.76
X35.052Y-7.62
X35.052Y-12.62
X35.504Y-106.76
X35.504Y-111.76
X38.552Y-7.62
X38.552Y-12.62
X41.26Y-106.76
X41.26Y-111.76
X42.052Y-7.62
X42.052Y-12.62
X44.76Y-106.76
X44.76Y-111.76
X45.552Y-7.62
X45.552Y-12.62
X48.26Y-106.76
X48.26Y-111.76
X51.76Y-106.76
X51.76Y-111.76
X52.604Y-7.62
X52.604Y-12.62
X55.26Y-106.76
X55.26Y-111.76
X56.104Y-7.62
X56.104Y-12.62
X59.604Y-7.62
X59.604Y-12.62
X60.96Y-106.76
X60.96Y-111.76
X63.104Y-7.62
X63.104Y-12.62
X64.46Y-106.76
X64.46Y-111.76
X66.604Y-7.62
X66.604Y-12.62
X70.104Y-7.62
X70.104Y-12.62
X70.104Y-106.76
X70.104Y-111.76
X73.604Y-7.62
X73.604Y-12.62
X73.604Y-106.76
X73.604Y-111.76
X77.104Y-7.62
X77.104Y-12.62
X77.104Y-106.76
X77.104Y-111.76
X80.604Y-106.76
X80.604Y-111.76
X83.312Y-7.62
X83.312Y-12.62
X84.104Y-106.76
X84.104Y-111.76
X86.812Y-7.62
X86.812Y-12.62
X89.916Y-106.76
X89.916Y-111.76
X90.312Y-7.62
X90.312Y-12.62
X93.416Y-106.76
X93.416Y-111.76
X93.812Y-7.62
X93.812Y-12.62
X97.312Y-7.62
X97.312Y-12.62
X100.812Y-7.62
X100.812Y-12.62
X104.312Y-7.62
X104.312Y-12.62
X107.412Y-106.76
X107.412Y-111.76
X107.812Y-7.62
X107.812Y-12.62
X110.912Y-106.76
X110.912Y-111.76
X114.412Y-106.76
X114.412Y-111.76
X117.912Y-106.76
X117.912Y-111.76
X121.412Y-106.76
X121.412Y-111.76
X126.492Y-7.62
X126.492Y-12.62
X127.056Y-106.76
X127.056Y-111.76
X129.992Y-7.62
X129.992Y-12.62
X130.556Y-106.76
X130.556Y-111.76
X136.144Y-106.76
X136.144Y-111.76
X137.328Y-22.352
X137.328Y-27.352
X137.384Y-7.62
X137.384Y-12.62
X139.644Y-106.76
X139.644Y-111.76
X140.828Y-22.352
X140.828Y-27.352
X140.884Y-7.62
X140.884Y-12.62
X143.144Y-106.76
X143.144Y-111.76
X144.328Y-22.352
X144.328Y-27.352
X144.384Y-7.62
X144.384Y-12.62
X146.644Y-106.76
X146.644Y-111.76
X147.828Y-22.352
X147.828Y-27.352
X147.884Y-7.62
X147.884Y-12.62
X150.144Y-106.76
X150.144Y-111.76
X151.328Y-22.352
X151.328Y-27.352
X151.384Y-7.62
X151.384Y-12.62
X154.828Y-22.352
X154.828Y-27.352
X154.884Y-7.62
X154.884Y-12.62
X155.956Y-106.76
X155.956Y-111.76
X158.328Y-22.352
X158.328Y-27.352
X158.384Y-7.62
X158.384Y-12.62
X159.456Y-106.76
X159.456Y-111.76
X161.828Y-22.352
X161.828Y-27.352
X161.884Y-7.62
X161.884Y-12.62
X165.1Y-106.76
X165.1Y-111.76
X168.316Y-7.62
X168.316Y-12.62
X168.428Y-22.352
X168.428Y-27.352
X168.6Y-106.76
X168.6Y-111.76
X171.816Y-7.62
X171.816Y-12.62
X171.928Y-22.352
X171.928Y-27.352
X172.1Y-106.76
X172.1Y-111.76
X175.316Y-7.62
X175.316Y-12.62
X175.428Y-22.352
X175.428Y-27.352
X175.6Y-106.76
X175.6Y-111.76
X178.816Y-7.62
X178.816Y-12.62
X178.928Y-22.352
X178.928Y-27.352
X179.1Y-106.76
X179.1Y-111.76
X182.316Y-7.62
X182.316Y-12.62
X182.428Y-22.352
X182.428Y-27.352
X184.778Y-106.76
X184.778Y-111.76
X185.816Y-7.62
X185.816Y-12.62
X185.928Y-22.352
X185.928Y-27.352
X188.278Y-106.76
X188.278Y-111.76
X189.316Y-7.62
X189.316Y-12.62
X189.428Y-22.352
X189.428Y-27.352
X192.816Y-7.62
X192.816Y-12.62
X192.928Y-22.352
X192.928Y-27.352
X196.044Y-40.602
X196.044Y-44.102
X196.044Y-47.602
X196.044Y-51.102
X196.044Y-54.602
X196.044Y-58.102
X196.044Y-61.602
X196.044Y-65.102
X196.044Y-68.602
X196.044Y-72.102
X196.044Y-75.602
X196.044Y-79.102
X201.044Y-40.602
X201.044Y-44.102
X201.044Y-47.602
X201.044Y-51.102
X201.044Y-54.602
X201.044Y-58.102
X201.044Y-61.602
X201.044Y-65.102
X201.044Y-68.602
X201.044Y-72.102
X201.044Y-75.602
X201.044Y-79.102
T9
X134.1Y-35.6
X156.7Y-35.6
T3
X2.225Y-32.99G85X1.425Y-32.99
G05
X2.225Y-41.63G85X1.425Y-41.63
G05
X6.575Y-32.99G85X5.475Y-32.99
G05
X6.575Y-41.63G85X5.475Y-41.63
G05
M30
