G04 #@! TF.GenerationSoftware,KiCad,Pcbnew,7.0.10*
G04 #@! TF.CreationDate,2024-02-23T22:38:30+01:00*
G04 #@! TF.ProjectId,FluidNC,466c7569-644e-4432-9e6b-696361645f70,rev?*
G04 #@! TF.SameCoordinates,Original*
G04 #@! TF.FileFunction,Soldermask,Bot*
G04 #@! TF.FilePolarity,Negative*
%FSLAX46Y46*%
G04 Gerber Fmt 4.6, Leading zero omitted, Abs format (unit mm)*
G04 Created by KiCad (PCBNEW 7.0.10) date 2024-02-23 22:38:30*
%MOMM*%
%LPD*%
G01*
G04 APERTURE LIST*
G04 Aperture macros list*
%AMRoundRect*
0 Rectangle with rounded corners*
0 $1 Rounding radius*
0 $2 $3 $4 $5 $6 $7 $8 $9 X,Y pos of 4 corners*
0 Add a 4 corners polygon primitive as box body*
4,1,4,$2,$3,$4,$5,$6,$7,$8,$9,$2,$3,0*
0 Add four circle primitives for the rounded corners*
1,1,$1+$1,$2,$3*
1,1,$1+$1,$4,$5*
1,1,$1+$1,$6,$7*
1,1,$1+$1,$8,$9*
0 Add four rect primitives between the rounded corners*
20,1,$1+$1,$2,$3,$4,$5,0*
20,1,$1+$1,$4,$5,$6,$7,0*
20,1,$1+$1,$6,$7,$8,$9,0*
20,1,$1+$1,$8,$9,$2,$3,0*%
G04 Aperture macros list end*
%ADD10R,1.500000X3.000000*%
%ADD11O,1.500000X3.000000*%
%ADD12C,0.650000*%
%ADD13O,2.100000X1.000000*%
%ADD14O,1.800000X1.000000*%
%ADD15C,1.620000*%
%ADD16C,1.200000*%
%ADD17R,2.400000X1.600000*%
%ADD18O,2.400000X1.600000*%
%ADD19R,1.700000X1.700000*%
%ADD20O,1.700000X1.700000*%
%ADD21R,1.600000X1.600000*%
%ADD22O,1.600000X1.600000*%
%ADD23RoundRect,0.250000X0.600000X0.725000X-0.600000X0.725000X-0.600000X-0.725000X0.600000X-0.725000X0*%
%ADD24O,1.700000X1.950000*%
%ADD25C,3.000000*%
%ADD26R,3.000000X1.500000*%
%ADD27O,3.000000X1.500000*%
G04 APERTURE END LIST*
D10*
X143874000Y-9908000D03*
X143874000Y-4908000D03*
D11*
X138874000Y-9908000D03*
X138874000Y-4908000D03*
X133874000Y-9908000D03*
X133874000Y-4908000D03*
X128874000Y-9908000D03*
X128874000Y-4908000D03*
X123874000Y-9908000D03*
X123874000Y-4908000D03*
X118874000Y-9908000D03*
X118874000Y-4908000D03*
X113874000Y-9908000D03*
X113874000Y-4908000D03*
X108874000Y-9908000D03*
X108874000Y-4908000D03*
D10*
X13000000Y-110000000D03*
X13000000Y-115000000D03*
D11*
X18000000Y-110000000D03*
X18000000Y-115000000D03*
X23000000Y-110000000D03*
X23000000Y-115000000D03*
X28000000Y-110000000D03*
X28000000Y-115000000D03*
X33000000Y-110000000D03*
X33000000Y-115000000D03*
D12*
X5505500Y-34420000D03*
X5505500Y-40200000D03*
D13*
X6025500Y-32990000D03*
D14*
X1825500Y-32990000D03*
D13*
X6025500Y-41630000D03*
D14*
X1825500Y-41630000D03*
D10*
X153500000Y-110000000D03*
X153500000Y-115000000D03*
D11*
X158500000Y-110000000D03*
X158500000Y-115000000D03*
X163500000Y-110000000D03*
X163500000Y-115000000D03*
X168500000Y-110000000D03*
X168500000Y-115000000D03*
X173500000Y-110000000D03*
X173500000Y-115000000D03*
D15*
X47538000Y-21804000D03*
X52538000Y-19304000D03*
X47538000Y-16804000D03*
D10*
X110500000Y-110000000D03*
X110500000Y-115000000D03*
D11*
X115500000Y-110000000D03*
X115500000Y-115000000D03*
X120500000Y-110000000D03*
X120500000Y-115000000D03*
X125500000Y-110000000D03*
X125500000Y-115000000D03*
X130500000Y-110000000D03*
X130500000Y-115000000D03*
D10*
X85000000Y-110000000D03*
X85000000Y-115000000D03*
D11*
X90000000Y-110000000D03*
X90000000Y-115000000D03*
D16*
X164980000Y-24500000D03*
X164980000Y-26000000D03*
X164980000Y-27500000D03*
X166480000Y-24500000D03*
X166480000Y-26000000D03*
X166480000Y-27500000D03*
X167980000Y-24500000D03*
X167980000Y-26000000D03*
X167980000Y-27500000D03*
X169480000Y-24500000D03*
X169480000Y-26000000D03*
X169480000Y-27500000D03*
X170980000Y-24500000D03*
X170980000Y-26000000D03*
X170980000Y-27500000D03*
X172480000Y-24500000D03*
X172480000Y-26000000D03*
X172480000Y-27500000D03*
X173980000Y-24500000D03*
X173980000Y-26000000D03*
X173980000Y-27500000D03*
D10*
X182500000Y-110000000D03*
X182500000Y-115000000D03*
D11*
X187500000Y-110000000D03*
X187500000Y-115000000D03*
D10*
X192480000Y-10000000D03*
X192480000Y-5000000D03*
D11*
X187480000Y-10000000D03*
X187480000Y-5000000D03*
X182480000Y-10000000D03*
X182480000Y-5000000D03*
X177480000Y-10000000D03*
X177480000Y-5000000D03*
X172480000Y-10000000D03*
X172480000Y-5000000D03*
X167480000Y-10000000D03*
X167480000Y-5000000D03*
X162480000Y-10000000D03*
X162480000Y-5000000D03*
X157480000Y-10000000D03*
X157480000Y-5000000D03*
D17*
X68690000Y-96210000D03*
D18*
X68690000Y-93670000D03*
X68690000Y-91130000D03*
X61070000Y-91130000D03*
X61070000Y-93670000D03*
X61070000Y-96210000D03*
D10*
X243000000Y-10000000D03*
X243000000Y-5000000D03*
D11*
X238000000Y-10000000D03*
X238000000Y-5000000D03*
X233000000Y-10000000D03*
X233000000Y-5000000D03*
X228000000Y-10000000D03*
X228000000Y-5000000D03*
X223000000Y-10000000D03*
X223000000Y-5000000D03*
X218000000Y-10000000D03*
X218000000Y-5000000D03*
X213000000Y-10000000D03*
X213000000Y-5000000D03*
X208000000Y-10000000D03*
X208000000Y-5000000D03*
D10*
X56000000Y-110000000D03*
X56000000Y-115000000D03*
D11*
X61000000Y-110000000D03*
X61000000Y-115000000D03*
X66000000Y-110000000D03*
X66000000Y-115000000D03*
X71000000Y-110000000D03*
X71000000Y-115000000D03*
X76000000Y-110000000D03*
X76000000Y-115000000D03*
D10*
X42000000Y-110000000D03*
X42000000Y-115000000D03*
D11*
X47000000Y-110000000D03*
X47000000Y-115000000D03*
D19*
X141209000Y-80518000D03*
D20*
X138669000Y-80518000D03*
X136129000Y-80518000D03*
D17*
X220690000Y-96210000D03*
D18*
X220690000Y-93670000D03*
X220690000Y-91130000D03*
X213070000Y-91130000D03*
X213070000Y-93670000D03*
X213070000Y-96210000D03*
D10*
X65750000Y-9906000D03*
X65750000Y-4906000D03*
D11*
X60750000Y-9906000D03*
X60750000Y-4906000D03*
X55750000Y-9906000D03*
X55750000Y-4906000D03*
X50750000Y-9906000D03*
X50750000Y-4906000D03*
D10*
X92202000Y-10000000D03*
X92202000Y-5000000D03*
D11*
X87202000Y-10000000D03*
X87202000Y-5000000D03*
D21*
X13000000Y-100000000D03*
D22*
X15540000Y-100000000D03*
X18080000Y-100000000D03*
X20620000Y-100000000D03*
X23160000Y-100000000D03*
X25700000Y-100000000D03*
X28240000Y-100000000D03*
X30780000Y-100000000D03*
X30780000Y-87300000D03*
X28240000Y-87300000D03*
X25700000Y-87300000D03*
X23160000Y-87300000D03*
X20620000Y-87300000D03*
X18080000Y-87300000D03*
X15540000Y-87300000D03*
X13000000Y-87300000D03*
D21*
X153500000Y-100000000D03*
D22*
X156040000Y-100000000D03*
X158580000Y-100000000D03*
X161120000Y-100000000D03*
X163660000Y-100000000D03*
X166200000Y-100000000D03*
X168740000Y-100000000D03*
X171280000Y-100000000D03*
X171280000Y-87300000D03*
X168740000Y-87300000D03*
X166200000Y-87300000D03*
X163660000Y-87300000D03*
X161120000Y-87300000D03*
X158580000Y-87300000D03*
X156040000Y-87300000D03*
X153500000Y-87300000D03*
D23*
X15668000Y-49784000D03*
D24*
X13168000Y-49784000D03*
X10668000Y-49784000D03*
X8168000Y-49784000D03*
X5668000Y-49784000D03*
X3168000Y-49784000D03*
D17*
X166360000Y-96022000D03*
D18*
X166360000Y-93482000D03*
X166360000Y-90942000D03*
X158740000Y-90942000D03*
X158740000Y-93482000D03*
X158740000Y-96022000D03*
D25*
X119380000Y-21844000D03*
X96780000Y-21844000D03*
D26*
X290000000Y-100000000D03*
X295000000Y-100000000D03*
D27*
X290000000Y-95000000D03*
X295000000Y-95000000D03*
X290000000Y-90000000D03*
X295000000Y-90000000D03*
X290000000Y-85000000D03*
X295000000Y-85000000D03*
X290000000Y-80000000D03*
X295000000Y-80000000D03*
X290000000Y-75000000D03*
X295000000Y-75000000D03*
X290000000Y-70000000D03*
X295000000Y-70000000D03*
X290000000Y-65000000D03*
X295000000Y-65000000D03*
X290000000Y-60000000D03*
X295000000Y-60000000D03*
X290000000Y-55000000D03*
X295000000Y-55000000D03*
X290000000Y-50000000D03*
X295000000Y-50000000D03*
X290000000Y-45000000D03*
X295000000Y-45000000D03*
D19*
X62992000Y-17526000D03*
D20*
X65532000Y-17526000D03*
X68072000Y-17526000D03*
D21*
X110500000Y-100000000D03*
D22*
X113040000Y-100000000D03*
X115580000Y-100000000D03*
X118120000Y-100000000D03*
X120660000Y-100000000D03*
X123200000Y-100000000D03*
X125740000Y-100000000D03*
X128280000Y-100000000D03*
X128280000Y-87300000D03*
X125740000Y-87300000D03*
X123200000Y-87300000D03*
X120660000Y-87300000D03*
X118120000Y-87300000D03*
X115580000Y-87300000D03*
X113040000Y-87300000D03*
X110500000Y-87300000D03*
D10*
X280000000Y-110000000D03*
X280000000Y-115000000D03*
D11*
X285000000Y-110000000D03*
X285000000Y-115000000D03*
D10*
X237000000Y-110000000D03*
X237000000Y-115000000D03*
D11*
X242000000Y-110000000D03*
X242000000Y-115000000D03*
D10*
X251000000Y-110000000D03*
X251000000Y-115000000D03*
D11*
X256000000Y-110000000D03*
X256000000Y-115000000D03*
X261000000Y-110000000D03*
X261000000Y-115000000D03*
X266000000Y-110000000D03*
X266000000Y-115000000D03*
X271000000Y-110000000D03*
X271000000Y-115000000D03*
D15*
X23662000Y-21804000D03*
X28662000Y-19304000D03*
X23662000Y-16804000D03*
D21*
X56000000Y-100000000D03*
D22*
X58540000Y-100000000D03*
X61080000Y-100000000D03*
X63620000Y-100000000D03*
X66160000Y-100000000D03*
X68700000Y-100000000D03*
X71240000Y-100000000D03*
X73780000Y-100000000D03*
X73780000Y-87300000D03*
X71240000Y-87300000D03*
X68700000Y-87300000D03*
X66160000Y-87300000D03*
X63620000Y-87300000D03*
X61080000Y-87300000D03*
X58540000Y-87300000D03*
X56000000Y-87300000D03*
D16*
X127374000Y-24408000D03*
X127374000Y-25908000D03*
X127374000Y-27408000D03*
X128874000Y-24408000D03*
X128874000Y-25908000D03*
X128874000Y-27408000D03*
X130374000Y-24408000D03*
X130374000Y-25908000D03*
X130374000Y-27408000D03*
X131874000Y-24408000D03*
X131874000Y-25908000D03*
X131874000Y-27408000D03*
X133374000Y-24408000D03*
X133374000Y-25908000D03*
X133374000Y-27408000D03*
X134874000Y-24408000D03*
X134874000Y-25908000D03*
X134874000Y-27408000D03*
X136374000Y-24408000D03*
X136374000Y-25908000D03*
X136374000Y-27408000D03*
D10*
X243000000Y-27000000D03*
X243000000Y-22000000D03*
D11*
X238000000Y-27000000D03*
X238000000Y-22000000D03*
X233000000Y-27000000D03*
X233000000Y-22000000D03*
X228000000Y-27000000D03*
X228000000Y-22000000D03*
X223000000Y-27000000D03*
X223000000Y-22000000D03*
X218000000Y-27000000D03*
X218000000Y-22000000D03*
X213000000Y-27000000D03*
X213000000Y-22000000D03*
X208000000Y-27000000D03*
X208000000Y-22000000D03*
D17*
X263690000Y-96210000D03*
D18*
X263690000Y-93670000D03*
X263690000Y-91130000D03*
X256070000Y-91130000D03*
X256070000Y-93670000D03*
X256070000Y-96210000D03*
D19*
X40386000Y-84836000D03*
D20*
X37846000Y-84836000D03*
X35306000Y-84836000D03*
D17*
X25690000Y-96210000D03*
D18*
X25690000Y-93670000D03*
X25690000Y-91130000D03*
X18070000Y-91130000D03*
X18070000Y-93670000D03*
X18070000Y-96210000D03*
D21*
X251000000Y-100000000D03*
D22*
X253540000Y-100000000D03*
X256080000Y-100000000D03*
X258620000Y-100000000D03*
X261160000Y-100000000D03*
X263700000Y-100000000D03*
X266240000Y-100000000D03*
X268780000Y-100000000D03*
X268780000Y-87300000D03*
X266240000Y-87300000D03*
X263700000Y-87300000D03*
X261160000Y-87300000D03*
X258620000Y-87300000D03*
X256080000Y-87300000D03*
X253540000Y-87300000D03*
X251000000Y-87300000D03*
D10*
X287000000Y-27000000D03*
X287000000Y-22000000D03*
D11*
X282000000Y-27000000D03*
X282000000Y-22000000D03*
X277000000Y-27000000D03*
X277000000Y-22000000D03*
X272000000Y-27000000D03*
X272000000Y-22000000D03*
X267000000Y-27000000D03*
X267000000Y-22000000D03*
X262000000Y-27000000D03*
X262000000Y-22000000D03*
X257000000Y-27000000D03*
X257000000Y-22000000D03*
X252000000Y-27000000D03*
X252000000Y-22000000D03*
D19*
X39385000Y-17526000D03*
D20*
X41925000Y-17526000D03*
X44465000Y-17526000D03*
D10*
X208000000Y-110000000D03*
X208000000Y-115000000D03*
D11*
X213000000Y-110000000D03*
X213000000Y-115000000D03*
X218000000Y-110000000D03*
X218000000Y-115000000D03*
X223000000Y-110000000D03*
X223000000Y-115000000D03*
X228000000Y-110000000D03*
X228000000Y-115000000D03*
D10*
X139500000Y-110000000D03*
X139500000Y-115000000D03*
D11*
X144500000Y-110000000D03*
X144500000Y-115000000D03*
D10*
X287000000Y-10000000D03*
X287000000Y-5000000D03*
D11*
X282000000Y-10000000D03*
X282000000Y-5000000D03*
X277000000Y-10000000D03*
X277000000Y-5000000D03*
X272000000Y-10000000D03*
X272000000Y-5000000D03*
X267000000Y-10000000D03*
X267000000Y-5000000D03*
X262000000Y-10000000D03*
X262000000Y-5000000D03*
X257000000Y-10000000D03*
X257000000Y-5000000D03*
X252000000Y-10000000D03*
X252000000Y-5000000D03*
D17*
X123190000Y-96210000D03*
D18*
X123190000Y-93670000D03*
X123190000Y-91130000D03*
X115570000Y-91130000D03*
X115570000Y-93670000D03*
X115570000Y-96210000D03*
D21*
X208000000Y-100000000D03*
D22*
X210540000Y-100000000D03*
X213080000Y-100000000D03*
X215620000Y-100000000D03*
X218160000Y-100000000D03*
X220700000Y-100000000D03*
X223240000Y-100000000D03*
X225780000Y-100000000D03*
X225780000Y-87300000D03*
X223240000Y-87300000D03*
X220700000Y-87300000D03*
X218160000Y-87300000D03*
X215620000Y-87300000D03*
X213080000Y-87300000D03*
X210540000Y-87300000D03*
X208000000Y-87300000D03*
D10*
X41750000Y-9906000D03*
X41750000Y-4906000D03*
D11*
X36750000Y-9906000D03*
X36750000Y-4906000D03*
X31750000Y-9906000D03*
X31750000Y-4906000D03*
X26750000Y-9906000D03*
X26750000Y-4906000D03*
M02*
