M48
; DRILL file {KiCad 7.0.10} date Fri Feb 23 22:38:39 2024
; FORMAT={-:-/ absolute / metric / decimal}
; #@! TF.CreationDate,2024-02-23T22:38:39+01:00
; #@! TF.GenerationSoftware,Kicad,Pcbnew,7.0.10
; #@! TF.FileFunction,Plated,1,2,PTH
FMAT,2
METRIC
; #@! TA.AperFunction,Plated,PTH,ComponentDrill
T1C0.200
; #@! TA.AperFunction,Plated,PTH,ViaDrill
T2C0.400
; #@! TA.AperFunction,Plated,PTH,ComponentDrill
T3C0.600
; #@! TA.AperFunction,Plated,PTH,ComponentDrill
T4C0.800
; #@! TA.AperFunction,Plated,PTH,ComponentDrill
T5C0.900
; #@! TA.AperFunction,Plated,PTH,ComponentDrill
T6C0.950
; #@! TA.AperFunction,Plated,PTH,ComponentDrill
T7C1.000
; #@! TA.AperFunction,Plated,PTH,ComponentDrill
T8C1.150
; #@! TA.AperFunction,Plated,PTH,ComponentDrill
T9C1.500
%
G90
G05
T1
X7.365Y-68.453
X7.365Y-69.977
X8.127Y-67.69
X8.127Y-69.215
X8.127Y-70.74
X8.89Y-68.453
X8.89Y-69.977
X9.652Y-67.69
X9.652Y-69.215
X9.652Y-70.74
X10.415Y-68.453
X10.415Y-69.977
T2
X1.27Y-71.628
X1.524Y-62.992
X2.794Y-75.692
X4.572Y-87.63
X5.842Y-75.438
X6.096Y-54.102
X6.868Y-55.981
X7.112Y-62.992
X7.112Y-75.438
X7.62Y-53.848
X7.638Y-27.45
X7.638Y-29.482
X8.146Y-39.896
X8.382Y-74.712
X8.636Y-33.274
X9.144Y-53.34
X9.398Y-74.257
X10.668Y-73.406
X10.922Y-40.386
X11.43Y-80.518
X11.684Y-61.468
X11.938Y-73.66
X12.192Y-33.02
X13.462Y-31.496
X13.462Y-37.334
X13.462Y-38.862
X13.716Y-57.15
X13.716Y-73.531
X14.732Y-73.077
X15.24Y-62.738
X15.494Y-52.324
X16.256Y-72.623
X17.037Y-34.308
X17.037Y-35.578
X17.526Y-52.07
X17.78Y-61.722
X17.78Y-70.104
X17.78Y-71.12
X17.78Y-72.169
X18.034Y-55.88
X18.288Y-54.066
X20.066Y-31.496
X21.336Y-54.864
X21.844Y-55.88
X22.098Y-48.768
X22.86Y-62.738
X23.368Y-71.971
X24.892Y-51.054
X25.146Y-55.372
X26.162Y-41.148
X26.162Y-69.596
X26.416Y-79.756
X27.178Y-44.704
X27.178Y-62.738
X28.194Y-56.642
X28.702Y-61.976
X29.464Y-25.908
X30.48Y-48.768
X31.496Y-66.548
X32.004Y-36.068
X32.512Y-69.596
X33.274Y-45.974
X33.528Y-61.214
X34.29Y-87.63
X34.798Y-39.878
X36.576Y-44.45
X37.846Y-28.448
X38.862Y-34.544
X39.116Y-69.596
X39.37Y-49.784
X39.878Y-61.214
X39.878Y-92.202
X41.148Y-49.53
X42.328Y-49.494
X42.418Y-47.498
X43.688Y-26.416
X44.323Y-49.492
X44.704Y-60.96
X45.974Y-69.596
X49.022Y-87.376
X50.546Y-66.548
X50.8Y-50.546
X51.816Y-57.862
X51.816Y-76.962
X52.832Y-70.104
X55.626Y-49.492
X55.626Y-54.102
X57.912Y-66.04
X58.293Y-49.492
X60.452Y-19.812
X62.484Y-70.104
X63.754Y-76.708
X64.516Y-50.546
X64.516Y-55.626
X69.342Y-49.53
X69.342Y-53.848
X70.104Y-77.724
X70.866Y-78.74
X72.136Y-67.31
X72.263Y-49.492
X73.406Y-66.548
X73.66Y-70.104
X73.914Y-69.088
X74.422Y-59.944
X74.422Y-60.96
X74.422Y-61.976
X74.422Y-62.992
X74.422Y-64.008
X74.422Y-65.008
X75.438Y-70.609
X78.486Y-50.292
X78.994Y-56.388
X80.01Y-13.716
X81.026Y-53.594
X82.804Y-117.602
X83.058Y-34.544
X84.074Y-49.784
X84.328Y-54.61
X84.836Y-66.04
X84.836Y-69.596
X84.836Y-89.408
X85.09Y-77.216
X85.09Y-80.264
X86.868Y-49.403
X87.884Y-116.586
X88.9Y-23.622
X89.408Y-79.756
X89.916Y-90.932
X90.297Y-65.659
X90.424Y-35.052
X90.678Y-91.694
X91.694Y-84.582
X92.71Y-47.752
X94.488Y-32.766
X96.52Y-69.85
X96.52Y-84.582
X98.298Y-65.024
X99.822Y-80.264
X106.426Y-78.74
X107.95Y-77.724
X125.476Y-80.01
X127.0Y-47.498
X128.524Y-37.084
X129.497Y-50.038
X130.147Y-50.978
X130.302Y-79.756
X130.797Y-51.816
X130.81Y-87.63
X131.464Y-52.776
X131.526Y-53.778
X132.08Y-54.61
X132.842Y-56.388
X134.112Y-56.388
X136.144Y-84.064
X137.414Y-21.082
X137.414Y-92.456
X139.192Y-32.766
X139.7Y-65.786
X143.51Y-51.816
X146.812Y-81.788
X147.066Y-50.292
X147.32Y-65.786
X148.082Y-81.788
X148.59Y-51.816
X148.59Y-56.896
X150.114Y-50.003
X151.638Y-54.356
X153.67Y-55.372
X153.67Y-57.912
X154.432Y-45.191
X154.432Y-49.276
X154.432Y-51.816
X154.94Y-65.278
X154.98Y-82.56
X157.48Y-63.5
X158.496Y-44.704
X158.496Y-56.388
X158.496Y-58.166
X158.75Y-38.354
X160.02Y-55.88
X160.02Y-65.278
X160.274Y-83.058
X160.528Y-59.69
X162.56Y-38.608
X162.56Y-44.736
X162.56Y-63.5
X164.592Y-39.37
X165.1Y-65.278
X165.608Y-39.38
X165.608Y-44.45
X166.624Y-39.38
X166.878Y-83.566
X167.386Y-44.704
X167.64Y-39.38
X167.64Y-63.5
X168.402Y-43.942
X168.656Y-39.38
X169.348Y-43.226
X169.926Y-39.37
X170.18Y-42.672
X170.18Y-65.278
X170.688Y-48.006
X170.688Y-50.546
X170.688Y-53.086
X170.942Y-41.91
X170.949Y-39.316
X171.704Y-41.148
X172.72Y-63.5
X173.482Y-68.834
X173.736Y-43.942
X173.99Y-80.772
X175.006Y-21.082
X175.26Y-55.626
X175.514Y-49.276
X177.038Y-50.546
X177.038Y-53.086
X179.578Y-85.598
X180.34Y-92.456
X194.564Y-46.099
X199.644Y-45.72
X206.756Y-59.436
X206.756Y-61.468
X208.026Y-59.436
X208.534Y-61.214
X209.042Y-65.024
X211.582Y-63.246
X214.122Y-65.024
X216.154Y-48.006
X216.154Y-50.546
X216.154Y-53.086
X216.662Y-63.246
X219.202Y-65.024
X220.98Y-48.006
X220.98Y-50.546
X220.98Y-53.086
X221.742Y-63.246
X223.75Y-46.76
X224.282Y-65.024
X226.822Y-63.246
X227.33Y-46.736
X227.838Y-80.772
X232.156Y-54.102
X232.156Y-59.182
X232.156Y-64.262
X233.934Y-56.642
X233.934Y-61.722
X233.934Y-66.802
X234.95Y-92.71
X246.38Y-60.452
X250.952Y-76.2
X252.222Y-76.2
X263.144Y-50.8
X263.144Y-55.626
X263.144Y-60.452
X263.144Y-65.278
X263.144Y-69.85
X271.526Y-78.486
X275.336Y-84.582
X277.876Y-93.218
X279.146Y-82.55
X279.908Y-78.486
X281.686Y-51.816
X281.686Y-58.674
X281.686Y-68.072
X281.686Y-77.978
T4
X13.0Y-87.3
X13.0Y-100.0
X15.54Y-87.3
X15.54Y-100.0
X18.07Y-91.13
X18.07Y-93.67
X18.07Y-96.21
X18.08Y-87.3
X18.08Y-100.0
X20.62Y-87.3
X20.62Y-100.0
X23.16Y-87.3
X23.16Y-100.0
X25.69Y-91.13
X25.69Y-93.67
X25.69Y-96.21
X25.7Y-87.3
X25.7Y-100.0
X28.24Y-87.3
X28.24Y-100.0
X30.78Y-87.3
X30.78Y-100.0
X56.0Y-87.3
X56.0Y-100.0
X58.54Y-87.3
X58.54Y-100.0
X61.07Y-91.13
X61.07Y-93.67
X61.07Y-96.21
X61.08Y-87.3
X61.08Y-100.0
X63.62Y-87.3
X63.62Y-100.0
X66.16Y-87.3
X66.16Y-100.0
X68.69Y-91.13
X68.69Y-93.67
X68.69Y-96.21
X68.7Y-87.3
X68.7Y-100.0
X71.24Y-87.3
X71.24Y-100.0
X73.78Y-87.3
X73.78Y-100.0
X110.5Y-87.3
X110.5Y-100.0
X113.04Y-87.3
X113.04Y-100.0
X115.57Y-91.13
X115.57Y-93.67
X115.57Y-96.21
X115.58Y-87.3
X115.58Y-100.0
X118.12Y-87.3
X118.12Y-100.0
X120.66Y-87.3
X120.66Y-100.0
X123.19Y-91.13
X123.19Y-93.67
X123.19Y-96.21
X123.2Y-87.3
X123.2Y-100.0
X125.74Y-87.3
X125.74Y-100.0
X127.374Y-24.408
X127.374Y-25.908
X127.374Y-27.408
X128.28Y-87.3
X128.28Y-100.0
X128.874Y-24.408
X128.874Y-25.908
X128.874Y-27.408
X130.374Y-24.408
X130.374Y-25.908
X130.374Y-27.408
X131.874Y-24.408
X131.874Y-25.908
X131.874Y-27.408
X133.374Y-24.408
X133.374Y-25.908
X133.374Y-27.408
X134.874Y-24.408
X134.874Y-25.908
X134.874Y-27.408
X136.374Y-24.408
X136.374Y-25.908
X136.374Y-27.408
X153.5Y-87.3
X153.5Y-100.0
X156.04Y-87.3
X156.04Y-100.0
X158.58Y-87.3
X158.58Y-100.0
X158.74Y-90.942
X158.74Y-93.482
X158.74Y-96.022
X161.12Y-87.3
X161.12Y-100.0
X163.66Y-87.3
X163.66Y-100.0
X164.98Y-24.5
X164.98Y-26.0
X164.98Y-27.5
X166.2Y-87.3
X166.2Y-100.0
X166.36Y-90.942
X166.36Y-93.482
X166.36Y-96.022
X166.48Y-24.5
X166.48Y-26.0
X166.48Y-27.5
X167.98Y-24.5
X167.98Y-26.0
X167.98Y-27.5
X168.74Y-87.3
X168.74Y-100.0
X169.48Y-24.5
X169.48Y-26.0
X169.48Y-27.5
X170.98Y-24.5
X170.98Y-26.0
X170.98Y-27.5
X171.28Y-87.3
X171.28Y-100.0
X172.48Y-24.5
X172.48Y-26.0
X172.48Y-27.5
X173.98Y-24.5
X173.98Y-26.0
X173.98Y-27.5
X208.0Y-87.3
X208.0Y-100.0
X210.54Y-87.3
X210.54Y-100.0
X213.07Y-91.13
X213.07Y-93.67
X213.07Y-96.21
X213.08Y-87.3
X213.08Y-100.0
X215.62Y-87.3
X215.62Y-100.0
X218.16Y-87.3
X218.16Y-100.0
X220.69Y-91.13
X220.69Y-93.67
X220.69Y-96.21
X220.7Y-87.3
X220.7Y-100.0
X223.24Y-87.3
X223.24Y-100.0
X225.78Y-87.3
X225.78Y-100.0
X251.0Y-87.3
X251.0Y-100.0
X253.54Y-87.3
X253.54Y-100.0
X256.07Y-91.13
X256.07Y-93.67
X256.07Y-96.21
X256.08Y-87.3
X256.08Y-100.0
X258.62Y-87.3
X258.62Y-100.0
X261.16Y-87.3
X261.16Y-100.0
X263.69Y-91.13
X263.69Y-93.67
X263.69Y-96.21
X263.7Y-87.3
X263.7Y-100.0
X266.24Y-87.3
X266.24Y-100.0
X268.78Y-87.3
X268.78Y-100.0
T5
X23.662Y-16.804
X23.662Y-21.804
X28.662Y-19.304
X47.538Y-16.804
X47.538Y-21.804
X52.538Y-19.304
T6
X3.168Y-49.784
X5.668Y-49.784
X8.168Y-49.784
X10.668Y-49.784
X13.168Y-49.784
X15.668Y-49.784
T7
X35.306Y-84.836
X37.846Y-84.836
X39.385Y-17.526
X40.386Y-84.836
X41.925Y-17.526
X44.465Y-17.526
X62.992Y-17.526
X65.532Y-17.526
X68.072Y-17.526
X136.129Y-80.518
X138.669Y-80.518
X141.209Y-80.518
T8
X13.0Y-110.0
X13.0Y-115.0
X18.0Y-110.0
X18.0Y-115.0
X23.0Y-110.0
X23.0Y-115.0
X26.75Y-4.906
X26.75Y-9.906
X28.0Y-110.0
X28.0Y-115.0
X31.75Y-4.906
X31.75Y-9.906
X33.0Y-110.0
X33.0Y-115.0
X36.75Y-4.906
X36.75Y-9.906
X41.75Y-4.906
X41.75Y-9.906
X42.0Y-110.0
X42.0Y-115.0
X47.0Y-110.0
X47.0Y-115.0
X50.75Y-4.906
X50.75Y-9.906
X55.75Y-4.906
X55.75Y-9.906
X56.0Y-110.0
X56.0Y-115.0
X60.75Y-4.906
X60.75Y-9.906
X61.0Y-110.0
X61.0Y-115.0
X65.75Y-4.906
X65.75Y-9.906
X66.0Y-110.0
X66.0Y-115.0
X71.0Y-110.0
X71.0Y-115.0
X76.0Y-110.0
X76.0Y-115.0
X85.0Y-110.0
X85.0Y-115.0
X87.202Y-5.0
X87.202Y-10.0
X90.0Y-110.0
X90.0Y-115.0
X92.202Y-5.0
X92.202Y-10.0
X108.874Y-4.908
X108.874Y-9.908
X110.5Y-110.0
X110.5Y-115.0
X113.874Y-4.908
X113.874Y-9.908
X115.5Y-110.0
X115.5Y-115.0
X118.874Y-4.908
X118.874Y-9.908
X120.5Y-110.0
X120.5Y-115.0
X123.874Y-4.908
X123.874Y-9.908
X125.5Y-110.0
X125.5Y-115.0
X128.874Y-4.908
X128.874Y-9.908
X130.5Y-110.0
X130.5Y-115.0
X133.874Y-4.908
X133.874Y-9.908
X138.874Y-4.908
X138.874Y-9.908
X139.5Y-110.0
X139.5Y-115.0
X143.874Y-4.908
X143.874Y-9.908
X144.5Y-110.0
X144.5Y-115.0
X153.5Y-110.0
X153.5Y-115.0
X157.48Y-5.0
X157.48Y-10.0
X158.5Y-110.0
X158.5Y-115.0
X162.48Y-5.0
X162.48Y-10.0
X163.5Y-110.0
X163.5Y-115.0
X167.48Y-5.0
X167.48Y-10.0
X168.5Y-110.0
X168.5Y-115.0
X172.48Y-5.0
X172.48Y-10.0
X173.5Y-110.0
X173.5Y-115.0
X177.48Y-5.0
X177.48Y-10.0
X182.48Y-5.0
X182.48Y-10.0
X182.5Y-110.0
X182.5Y-115.0
X187.48Y-5.0
X187.48Y-10.0
X187.5Y-110.0
X187.5Y-115.0
X192.48Y-5.0
X192.48Y-10.0
X208.0Y-5.0
X208.0Y-10.0
X208.0Y-22.0
X208.0Y-27.0
X208.0Y-110.0
X208.0Y-115.0
X213.0Y-5.0
X213.0Y-10.0
X213.0Y-22.0
X213.0Y-27.0
X213.0Y-110.0
X213.0Y-115.0
X218.0Y-5.0
X218.0Y-10.0
X218.0Y-22.0
X218.0Y-27.0
X218.0Y-110.0
X218.0Y-115.0
X223.0Y-5.0
X223.0Y-10.0
X223.0Y-22.0
X223.0Y-27.0
X223.0Y-110.0
X223.0Y-115.0
X228.0Y-5.0
X228.0Y-10.0
X228.0Y-22.0
X228.0Y-27.0
X228.0Y-110.0
X228.0Y-115.0
X233.0Y-5.0
X233.0Y-10.0
X233.0Y-22.0
X233.0Y-27.0
X237.0Y-110.0
X237.0Y-115.0
X238.0Y-5.0
X238.0Y-10.0
X238.0Y-22.0
X238.0Y-27.0
X242.0Y-110.0
X242.0Y-115.0
X243.0Y-5.0
X243.0Y-10.0
X243.0Y-22.0
X243.0Y-27.0
X251.0Y-110.0
X251.0Y-115.0
X252.0Y-5.0
X252.0Y-10.0
X252.0Y-22.0
X252.0Y-27.0
X256.0Y-110.0
X256.0Y-115.0
X257.0Y-5.0
X257.0Y-10.0
X257.0Y-22.0
X257.0Y-27.0
X261.0Y-110.0
X261.0Y-115.0
X262.0Y-5.0
X262.0Y-10.0
X262.0Y-22.0
X262.0Y-27.0
X266.0Y-110.0
X266.0Y-115.0
X267.0Y-5.0
X267.0Y-10.0
X267.0Y-22.0
X267.0Y-27.0
X271.0Y-110.0
X271.0Y-115.0
X272.0Y-5.0
X272.0Y-10.0
X272.0Y-22.0
X272.0Y-27.0
X277.0Y-5.0
X277.0Y-10.0
X277.0Y-22.0
X277.0Y-27.0
X280.0Y-110.0
X280.0Y-115.0
X282.0Y-5.0
X282.0Y-10.0
X282.0Y-22.0
X282.0Y-27.0
X285.0Y-110.0
X285.0Y-115.0
X287.0Y-5.0
X287.0Y-10.0
X287.0Y-22.0
X287.0Y-27.0
X290.0Y-45.0
X290.0Y-50.0
X290.0Y-55.0
X290.0Y-60.0
X290.0Y-65.0
X290.0Y-70.0
X290.0Y-75.0
X290.0Y-80.0
X290.0Y-85.0
X290.0Y-90.0
X290.0Y-95.0
X290.0Y-100.0
X295.0Y-45.0
X295.0Y-50.0
X295.0Y-55.0
X295.0Y-60.0
X295.0Y-65.0
X295.0Y-70.0
X295.0Y-75.0
X295.0Y-80.0
X295.0Y-85.0
X295.0Y-90.0
X295.0Y-95.0
X295.0Y-100.0
T9
X96.78Y-21.844
X119.38Y-21.844
T3
X2.225Y-32.99G85X1.425Y-32.99
G05
X2.225Y-41.63G85X1.425Y-41.63
G05
X6.575Y-32.99G85X5.475Y-32.99
G05
X6.575Y-41.63G85X5.475Y-41.63
G05
M30
